<?xml version="1.0" encoding="UTF-8" standalone="no"?>
<!-- Created with Inkscape (http://www.inkscape.org/) -->

<svg
   xmlns:dc="http://purl.org/dc/elements/1.1/"
   xmlns:cc="http://creativecommons.org/ns#"
   xmlns:rdf="http://www.w3.org/1999/02/22-rdf-syntax-ns#"
   xmlns:svg="http://www.w3.org/2000/svg"
   xmlns="http://www.w3.org/2000/svg"
   xmlns:sodipodi="http://sodipodi.sourceforge.net/DTD/sodipodi-0.dtd"
   xmlns:inkscape="http://www.inkscape.org/namespaces/inkscape"
   width="744.09448819"
   height="1052.3622047"
   id="svg2"
   version="1.1"
   inkscape:version="0.48.4 r9939"
   sodipodi:docname="compas-rose.svg"
   inkscape:export-filename="d:\Users\Terminator\Google Drive\Christian\MappingCubed\compass-rose.png"
   inkscape:export-xdpi="30.477245"
   inkscape:export-ydpi="30.477245">
  <defs
     id="defs4">
    <filter
       inkscape:collect="always"
       id="filter3886">
      <feGaussianBlur
         inkscape:collect="always"
         stdDeviation="12.988404"
         id="feGaussianBlur3888" />
    </filter>
    <filter
       inkscape:collect="always"
       id="filter3954">
      <feGaussianBlur
         inkscape:collect="always"
         stdDeviation="13.067065"
         id="feGaussianBlur3956" />
    </filter>
  </defs>
  <sodipodi:namedview
     id="base"
     pagecolor="#ffffff"
     bordercolor="#666666"
     borderopacity="1.0"
     inkscape:pageopacity="0.0"
     inkscape:pageshadow="2"
     inkscape:zoom="0.24748738"
     inkscape:cx="-1978.2941"
     inkscape:cy="589.90123"
     inkscape:document-units="px"
     inkscape:current-layer="layer1"
     showgrid="false"
     inkscape:window-width="1366"
     inkscape:window-height="749"
     inkscape:window-x="-8"
     inkscape:window-y="-8"
     inkscape:window-maximized="1"
     showguides="true"
     inkscape:guide-bbox="true" />
  <metadata
     id="metadata7">
    <rdf:RDF>
      <cc:Work
         rdf:about="">
        <dc:format>image/svg+xml</dc:format>
        <dc:type
           rdf:resource="http://purl.org/dc/dcmitype/StillImage" />
        <dc:title></dc:title>
      </cc:Work>
    </rdf:RDF>
  </metadata>
  <g
     inkscape:label="Layer 1"
     inkscape:groupmode="layer"
     id="layer1">
    <path
       style="fill:#000000"
       d=""
       id="path3838"
       inkscape:connector-curvature="0" />
    <path
       style="fill:#000000"
       d=""
       id="path3834"
       inkscape:connector-curvature="0" />
    <g
       id="g3958"
       transform="translate(-452.54834,0)">
      <path
         style="fill:#000000"
         d="m -2128.4188,863.03211 c 7.8714,2.7875 12.1209,6.5951 12.1209,8.723 0,1.3911 -2.2517,3.2812 -7.7291,6.4875 -4.251,2.4884 -8.1291,4.5244 -8.618,4.5244 -0.4889,0 -2.4233,-1.3472 -4.2987,-2.9939 -7.931,-6.9635 -18.0922,-9.6478 -24.6827,-6.5205 -7.3412,3.4837 -9.9201,12.8727 -5.388,19.6165 3.4758,5.172 11.6787,9.4673 28.4845,14.9155 8.3974,2.7223 16.4974,5.5893 18,6.371 7.2453,3.7695 10.9323,11.9211 9.1893,20.3169 -2.754,13.2662 -24.4531,30.961 -42.7125,34.8304 -8.0402,1.7039 -13.8133,1.7248 -21.2448,0.077 l 0,0 c -7.1283,-1.5806 -10.9688,-3.6743 -14.8516,-8.0965 -5.0927,-5.8003 -4.4491,-7.4069 5.7714,-14.407 4.9059,-3.3601 9.6193,-6.1093 10.4743,-6.1093 0.855,0 2.204,1.2375 2.9978,2.75 1.865,3.5536 8.2366,9.5913 12.2531,11.6112 16.9993,8.5487 34.532,-7.069 24.2097,-21.5653 -2.6151,-3.6726 -4.0176,-4.3501 -25.3547,-12.2493 -21.5381,-7.9736 -25.273,-10.0188 -28.3745,-15.5371 -1.9277,-3.43 -2.2767,-5.2418 -1.9308,-10.0239 0.3519,-4.8656 1.044,-6.6403 4.1574,-10.6615 3.9402,-5.089 11.8503,-11.7278 31.4096,-18.332 0,0 18.6651,-6.3662 26.1174,-3.7271 z"
         id="path3908"
         inkscape:connector-curvature="0"
         sodipodi:nodetypes="ssssccsscssccsssscsscsscs" />
      <path
         sodipodi:nodetypes="cscsscsscsssscssscscscscccssc"
         inkscape:connector-curvature="0"
         id="path3068"
         d="m -2322.6454,947.706 c -0.8131,3.2208 -2.2289,5.1152 -6.1661,8.25 -5.2639,4.1912 -7.6299,4.9955 -8.2933,2.8192 -0.2095,-0.6875 -2.2753,-7.775 -4.5907,-15.75 -5.0749,-17.4802 -13.7668,-41.9401 -15.6229,-43.9643 -1.1772,-1.2838 -1.5351,-1.2717 -2.9051,0.098 -2.3651,2.3651 -20.4375,46.6675 -20.4375,50.1001 0,2.1512 -0.9945,3.9071 -3.5263,6.2262 -4.8294,4.4236 -8.2462,6.1673 -9.5432,4.8703 -0.5659,-0.566 -3.2132,-8.6344 -5.8828,-17.9298 -10.066,-35.0495 -21.558,-67.03998 -25.6691,-71.45548 -1.3082,-1.4051 -2.3786,-3.0408 -2.3786,-3.6349 0,-1.365 12.0666,-11.3104 13.7227,-11.3104 0.6772,0 1.9652,1.1202 2.8622,2.4893 2.1952,3.3502 12.0739,28.96708 19.5751,50.76068 3.3602,9.7625 6.4291,17.75 6.8197,17.75 3.7592,0 12.0531,-23.1661 16.6039,-46.3768 l 1.7405,-8.87688 5.9532,-4.6231 c 8.4457,-6.5587 9.2159,-6.3352 13.3599,3.8768 3.9146,9.64698 13.2405,36.85928 16.3826,47.80378 2.0778,7.2371 4.3122,9.845 6.0765,7.092 0.4919,-0.7677 2.6978,-5.9777 4.902,-11.5779 4.3137,-10.9599 8.4606,-27.0643 9.5171,-36.95928 l 0.6558,-6.1413 8.8296,-6.1087 c 4.8563,-3.3597 9.0928,-6.1086 9.4144,-6.1086 1.2479,0 0.3691,3.0587 -5.4208,18.8666 -3.2969,9.00158 -5.9944,17.22818 -5.9944,18.28138"
         style="fill:#000000" />
      <path
         sodipodi:nodetypes="ccscccccscsssssscsscsssccsscc"
         inkscape:connector-curvature="0"
         id="path3070"
         d="m -2492.3063,914.98238 c -5.4527,-6.23552 -8.042,-7.6169 -9.7918,-5.22391 -0.7685,1.05103 -1.4423,9.27362 -1.9152,23.37255 -0.4442,13.24078 -1.1593,22.27067 -1.8278,23.07909 -0.6039,0.7304 -3.3539,2.47113 -6.1111,3.86828 -2.7571,1.39716 -6.6969,3.65466 -8.7551,5.01669 -2.0581,1.36202 -4.218,2.18223 -4.7998,1.82269 -2.2362,-1.38203 -1.1471,-21.2096 2.4188,-44.03567 0.8593,-5.5 1.8439,-14.99795 2.1882,-21.10656 l 0.6259,-11.10656 -7.3953,-6.14556 c -5.0646,-4.20875 -8.5771,-6.34275 -11.1453,-6.77125 -2.0625,-0.34413 -3.75,-1.00758 -3.75,-1.47433 0,-1.37156 14.2685,-12.74631 16.7795,-13.37654 1.2635,-0.31712 3.7425,0.11319 5.5089,0.95624 5.7523,2.74544 23.7911,18.55394 44.4985,38.99682 11.1579,11.01526 20.6528,20.15523 21.1,20.31105 0.4471,0.15581 1.36,-0.37583 2.0286,-1.18144 1.4466,-1.74304 1.8566,-25.36605 0.6792,-39.13294 l -0.7724,-9.03107 9.4784,-6.71893 c 5.2132,-3.69541 10.0484,-6.71893 10.745,-6.71893 0.9963,0 1.134,3.57329 0.6455,16.75 -1.2785,34.48881 -2.7123,66.97744 -3.2549,73.75411 l -0.5609,7.00411 -7.3993,4.84201 c -4.0697,2.6631 -7.9135,4.67064 -8.5418,4.4612 -0.6283,-0.20944 -2.2691,-3.0525 -3.6461,-6.31791 -2.8377,-6.72906 -8.8009,-15.41423 -16.1307,-23.49352"
         style="fill:#000000" />
      <path
         sodipodi:nodetypes="ccscscssccsccscccsccssscssccc"
         inkscape:connector-curvature="0"
         id="path3072"
         d="m -2276.9886,888.39963 0,-14 -4.5,-0.2637 c -6.0112,-0.3523 -9.2119,-1.1293 -8.821,-2.1414 0.1765,-0.4573 3.751,-3.581 7.9432,-6.9414 l 7.6221,-6.11 32.1279,0.6395 c 17.6703,0.3518 32.1278,0.9175 32.1278,1.2572 0,1.4035 -12.716,13.0321 -15.3151,14.0055 -1.5483,0.5799 -7.6233,1.0605 -13.5,1.068 -12.1302,0.015 -14.7783,0.494 -15.6891,2.8349 -0.3534,0.9083 -0.8944,5.4842 -1.2021,10.1687 -0.4735,7.2069 -0.301,8.7318 1.1216,9.9124 1.2176,1.0105 6.2644,1.5573 18.3022,1.9828 10.3733,0.3667 16.7537,0.9882 16.9738,1.6534 0.1939,0.5863 -2.2448,3.8105 -5.4193,7.165 -6.6123,6.9869 -9.827,8.2549 -20.9506,8.2636 -10.3352,0.01 -10.4421,0.181 -10.0997,16.3468 l 0.2783,13.1418 3,0.6401 c 1.65,0.3521 13.2375,0.6934 25.75,0.7585 12.5125,0.065 22.75,0.5136 22.75,0.9967 0,0.4832 -3.0377,4.0832 -6.7504,8 l -6.7504,7.1216 -15.4996,0 c -8.5248,0 -21.8171,-0.2927 -29.5386,-0.6459 l -14.039,-0.6423 0.039,-19.6041 0.039,-19.604"
         style="fill:#000000" />
    </g>
    <g
       id="g3964"
       inkscape:export-filename="C:\Users\Eric\Downloads\compass-rose.png"
       inkscape:export-xdpi="33.099998"
       inkscape:export-ydpi="33.099998">
      <g
         style="opacity:0.5;fill:#000000;filter:url(#filter3954)"
         transform="translate(14,10)"
         id="g3152">
        <path
           inkscape:connector-curvature="0"
           id="path3154"
           d="m -1208.265,1038.9036 c -7.1283,-1.5806 -10.9688,-3.6743 -14.8516,-8.0965 -5.0927,-5.8003 -4.4491,-7.4069 5.7714,-14.407 4.9059,-3.3601 9.6193,-6.1093 10.4743,-6.1093 0.855,0 2.204,1.2375 2.9978,2.75 1.865,3.5536 8.2366,9.5913 12.2531,11.6112 16.9993,8.5487 34.532,-7.069 24.2097,-21.5653 -2.6151,-3.6726 -4.0176,-4.3501 -25.3547,-12.2493 -21.5381,-7.9736 -25.273,-10.0188 -28.3745,-15.5371 -1.9277,-3.43 -2.2767,-5.2418 -1.9308,-10.0239 0.3519,-4.8656 1.044,-6.6403 4.1574,-10.66144 3.9402,-5.089 12.2967,-11.9957 20.0236,-16.5496 4.2336,-2.4951 4.6185,-3.0443 4.5561,-6.5 -0.037,-2.076 -0.825,-6.6916 -1.75,-10.2567 -2.0148,-7.7655 -3.282,-8.6179 -14.1108,-9.4917 -12.9087,-1.0416 -44.7442,-6.4435 -62.9989,-10.6898 -31.343,-7.2908 -78.228,-24.6616 -104.0721,-38.5587 -46.5165,-25.0131 -83.4016,-52.21344 -113.3794,-83.61009 -26.6767,-27.93921 -33.0885,-35.26145 -46.9941,-53.66761 -35.1667,-46.54808 -60.0568,-97.17981 -74.9729,-152.51043 -10.6741,-39.59472 -14.7707,-64.8893 -16.3297,-100.82623 -0.4968,-11.45198 -1.0064,-15.25069 -2.2338,-16.65155 -1.7611,-2.01005 -34.4153,-11.01179 -39.9457,-11.01179 -2.9795,0 -3.458,0.46023 -5.6639,5.44827 -2.7517,6.22199 -7.9011,21.0379 -9.4649,27.23251 -0.8131,3.22079 -2.2289,5.11516 -6.1661,8.25 -5.2639,4.19114 -7.6299,4.99547 -8.2933,2.81922 -0.2095,-0.6875 -2.2753,-7.775 -4.5907,-15.75 -5.0749,-17.48022 -13.7668,-41.94011 -15.6229,-43.96429 -1.1772,-1.28389 -1.5351,-1.27179 -2.9051,0.0983 -2.3651,2.36501 -20.4375,46.66742 -20.4375,50.10001 0,2.15122 -0.9945,3.90717 -3.5263,6.22621 -4.8294,4.42359 -8.2462,6.1673 -9.5432,4.87032 -0.5659,-0.56598 -3.2132,-8.63439 -5.8828,-17.9298 -10.066,-35.04947 -21.558,-67.03996 -25.6691,-71.45547 -1.3082,-1.40509 -2.3786,-3.04082 -2.3786,-3.63494 0,-1.36501 12.0666,-11.31034 13.7227,-11.31034 0.6772,0 1.9652,1.12017 2.8622,2.48928 2.1952,3.35021 12.0739,28.96705 19.5751,50.76072 3.3602,9.7625 6.4291,17.75 6.8197,17.75 3.7592,0 12.0531,-23.16618 16.6039,-46.37688 l 1.7405,-8.87689 5.9532,-4.62311 c 8.4457,-6.55865 9.2159,-6.33514 13.3599,3.87688 3.9146,9.64694 13.2405,36.85926 16.3826,47.80378 2.0778,7.23704 4.3122,9.84494 6.0765,7.09194 0.4919,-0.76765 2.6978,-5.9777 4.902,-11.57789 4.3137,-10.95983 8.4606,-27.06426 9.5171,-36.95922 l 0.6558,-6.14139 8.8296,-6.10861 c 4.8563,-3.35974 9.0928,-6.10861 9.4144,-6.10861 1.2479,0 0.3691,3.05865 -5.4208,18.86653 -3.2969,9.0016 -5.9944,17.22822 -5.9944,18.28139 0,1.05317 0.736,2.1973 1.6357,2.54251 1.6944,0.65022 28.5411,-4.33734 31.5914,-5.86902 2.8529,-1.43257 3.4951,-3.6995 5.1907,-18.32141 6.9491,-59.92422 21.2226,-110.17516 45.9643,-161.82071 33.6046,-70.14587 90.7088,-135.88584 156.1179,-179.72732 24.5154,-16.431791 64.8785,-37.619201 92.085,-48.337231 40.9616,-16.13685 92.3602,-27.49379 136.415,-30.14202 14.9167,-0.89668 16.5422,-1.5405 18.3798,-7.28003 2.2874,-7.14476 13.308,-51.118996 14.0148,-55.921716 0.5861,-3.983 0.3455,-4.54563 -4.1361,-9.67069 -5.4527,-6.23552 -8.042,-7.6169 -9.7918,-5.22391 -0.7685,1.05103 -1.4423,9.27362 -1.9152,23.37255 -0.4442,13.24078 -1.1593,22.270666 -1.8278,23.079086 -0.6039,0.7304 -3.3539,2.47113 -6.1111,3.86828 -2.7571,1.39716 -6.6969,3.65466 -8.7551,5.01669 -2.0581,1.36202 -4.218,2.18223 -4.7998,1.82269 -2.2362,-1.38203 -1.1471,-21.209596 2.4188,-44.035666 0.8593,-5.5 1.8439,-14.99795 2.1882,-21.106563 l 0.6259,-11.10656 -7.3953,-6.14556 c -5.0646,-4.20875 -8.5771,-6.34275 -11.1453,-6.77125 -2.0625,-0.34413 -3.75,-1.00758 -3.75,-1.47433 0,-1.37156 14.2685,-12.74631 16.7795,-13.37654 1.2635,-0.31712 3.7425,0.11319 5.5089,0.95624 5.7523,2.74544 23.7911,18.55394 44.4985,38.99682 11.1579,11.015263 20.6528,20.155233 21.1,20.311053 0.4471,0.15581 1.36,-0.37583 2.0286,-1.18144 1.4466,-1.74304 1.8566,-25.366053 0.6792,-39.132943 l -0.7724,-9.03107 9.4784,-6.71893 c 5.2132,-3.69541 10.0484,-6.71893 10.745,-6.71893 0.9963,0 1.134,3.57329 0.6455,16.75 -1.2785,34.488813 -2.7123,66.977443 -3.2549,73.754113 l -0.5609,7.004106 -7.3993,4.84201 c -4.0697,2.6631 -7.9135,4.67064 -8.5418,4.4612 -0.6283,-0.20944 -2.2691,-3.0525 -3.6461,-6.31791 -2.8377,-6.72906 -8.8009,-15.414226 -16.1307,-23.493516 -4.5739,-5.04157 -5.1257,-5.36814 -6.62,-3.91796 -1.5047,1.46033 -1.268,3.4152 3.0766,25.410376 3.091,15.64894 5.2694,24.39106 6.346,25.46767 1.1756,1.17556 5.1616,1.99221 14.0896,2.88665 63.8665,6.39835 117.6968,21.40166 170.59471,47.54727 24.0434,11.88382 34.69294,18.06378 56.35563,32.703341 50.88834,34.39014 90.9476,74.40363 123.8062,123.66463 33.1998,49.77268 55.6915,102.33867 68.56181,160.23802 5.6363,25.35555 7.8833,41.66527 10.5278,76.41338 0.6395,8.40308 1.2177,11.19645 2.5136,12.14406 2.328,1.70222 30.793,8.69185 33.7146,8.27863 2.3722,-0.33553 2.376,-0.35846 2.376,-14.33607 l 0,-14 -4.5,-0.26372 c -6.0112,-0.35228 -9.2119,-1.1293 -8.821,-2.14146 0.1765,-0.45729 3.751,-3.58094 7.9432,-6.94145 l 7.6221,-6.11003 32.1279,0.63955 c 17.6703,0.35176 32.1278,0.91751 32.1278,1.25722 0,1.40345 -12.716,13.03212 -15.3151,14.00556 -1.5483,0.57988 -7.6233,1.06047 -13.5,1.06798 -12.1302,0.0155 -14.7783,0.49399 -15.6891,2.83489 -0.3534,0.9083 -0.8944,5.48421 -1.2021,10.16868 -0.4735,7.20697 -0.301,8.73187 1.1216,9.91247 1.2176,1.01051 6.2644,1.55726 18.3022,1.98278 10.3733,0.36668 16.7537,0.9882 16.9738,1.65343 0.1939,0.58625 -2.2448,3.81047 -5.4193,7.16494 -6.6123,6.98694 -9.827,8.25494 -20.9506,8.26358 -10.3352,0.008 -10.4421,0.18102 -10.0997,16.34686 l 0.2783,13.14176 3,0.64016 c 1.65,0.3521 13.2375,0.69341 25.75,0.75849 12.5125,0.0651 22.75,0.51359 22.75,0.99671 0,0.48312 -3.0377,4.08312 -6.7504,8 l -6.7504,7.1216 -15.4996,-0.004 c -8.5248,-0.002 -21.8171,-0.29269 -29.5386,-0.64595 l -14.039,-0.6423 0.039,-19.60404 0.039,-19.60405 -3.6158,-0.30236 c -3.9794,-0.33277 -27.2362,4.09438 -31.3463,5.96706 -3.0253,1.37839 -3.099,1.65946 -4.5491,17.3353 -5.2223,56.45291 -21.9225,115.44325 -46.68331,164.89972 -30.7363,61.39181 -75.0569,117.46835 -123.09488,155.74549 -80.63748,64.25269 -172.12406,98.63079 -278.00256,104.46559 -13.7661,0.7587 -13.1233,0.3734 -15.8306,9.4899 -0.8075,2.719 -1.1647,5.4346 -0.7938,6.0348 0.3709,0.6001 2.7538,2.0084 5.2954,3.1296 7.64,3.3703 12.1209,6.5951 12.1209,8.723 0,1.3911 -2.2517,3.2812 -7.7291,6.4875 -4.251,2.4884 -8.1291,4.5244 -8.618,4.5244 -0.4889,0 -2.4233,-1.3472 -4.2987,-2.9939 -7.931,-6.9635 -18.0922,-9.6478 -24.6827,-6.5205 -7.3412,3.4837 -9.9201,12.8727 -5.388,19.61648 3.4758,5.172 11.6787,9.4673 28.4845,14.9155 8.3974,2.7223 16.4974,5.5893 18,6.371 7.2453,3.7695 10.9323,11.9211 9.1893,20.3169 -2.754,13.2662 -24.4531,30.961 -42.7125,34.8304 -8.0402,1.7039 -13.8133,1.7248 -21.2448,0.077 z m 34.872,-150.86284 c 8.6088,-35.7182 60.0555,-248.85468 61.612,-255.25 8.6337,-35.47345 11.516,-48.10183 11.516,-50.4556 0,-2.45367 -4.2237,-6.19414 -35.6871,-31.60443 -19.9362,-16.10072 -36.5976,-28.84755 -37.75,-28.88067 -2.3271,-0.0669 -1.8303,-17.47587 -4.4935,157.4407 -0.6239,40.975 -1.564,99.7 -2.0891,130.5 -0.5251,30.8 -0.9604,65.7875 -0.9675,77.75 -0.017,29.0209 0.97,29.0837 7.8592,0.5 z m 55.128,8.258 c 42.58,-4.3662 87.0822,-16.0617 129.50004,-34.0336 20.3245,-8.6112 26.6185,-11.7238 45,-22.2542 26.5595,-15.2153 51.72082,-33.18328 74.68592,-53.33393 8.19973,-7.19482 9.86438,-9.13382 9.61531,-11.19995 -0.23265,-1.92985 -5.87907,-6.89696 -24.80123,-21.81746 -13.475,-10.6253 -25.24594,-19.33001 -26.15765,-19.3438 -0.9117,-0.0138 -7.30749,4.71269 -14.21286,10.50327 -19.23531,16.12999 -46.17753,33.63737 -70.98982,46.13002 -43.50121,21.90225 -84.55571,34.28555 -129.93801,39.19315 -11.5585,1.2499 -17.2628,2.2811 -18.2875,3.3057 -0.8351,0.8351 -4.6133,15.0285 -8.603,32.3187 -6.2223,26.9657 -6.9241,30.9684 -5.5996,31.9368 1.6523,1.2082 20.951,0.5269 39.7884,-1.4047 z m -85.5818,0.385 c 0.9014,-0.3459 1.5706,-1.7439 1.5559,-3.25 -0.05,-5.0898 -12.6613,-61.2584 -14.0609,-62.6247 -0.7773,-0.7588 -8.054,-2.5331 -16.1705,-3.9428 -29.0539,-5.04646 -61.9283,-15.14684 -90.7427,-27.87997 -36.9315,-16.3201 -70.6652,-38.43788 -102.9444,-67.49636 -6.3556,-5.72145 -12.4922,-10.84452 -13.637,-11.3846 -1.7979,-0.84822 -5.3677,1.51494 -26.2117,17.35174 -13.2717,10.08353 -24.3912,18.98153 -24.71,19.77334 -1.0644,2.64346 24.3579,26.84383 47.5031,45.21989 20.1548,16.00181 50.2986,35.35746 74.1518,47.61356 45.2626,23.2567 106.2098,41.4601 155.8482,46.5481 6.5336,0.6697 7.8344,0.6796 9.4182,0.072 z m 95.0818,-101.50267 c 46.0162,-7.99091 85.0752,-22.80189 125.00004,-47.39939 21.77546,-13.41578 46.5,-32.62147 46.5,-36.12057 0,-1.25862 -142.12584,-115.76178 -146.77934,-118.25228 -1.2419,-0.66464 -2.3324,-0.74638 -2.67,-0.20013 -0.491,0.79443 -36.3939,149.85791 -45.6003,189.32563 -3.6501,15.64769 -3.4159,16.96572 2.8615,16.10472 2.0285,-0.27822 11.3381,-1.83431 20.6881,-3.45798 z m -114.7039,-2.46125 c 0.2541,-1.77714 -3.6476,-21.49255 -16.3125,-82.42908 -1.4289,-6.875 -7.3127,-35.225 -13.0751,-63 -12.388,-59.71051 -11.9732,-58.0174 -14.197,-57.94188 -2.5337,0.0861 -145.6261,108.14096 -146.0379,110.27913 -0.4437,2.30417 1.1779,4.08735 12.8264,14.10401 42.1736,36.26539 88.0228,60.76466 140.5542,75.10436 24.4423,6.67211 35.6712,7.87533 36.2419,3.88346 z m 381.98241,-32.89204 c 38.77523,-40.61266 70.06413,-89.25778 91.69223,-142.55452 17.3846,-42.83985 27.87851,-86.19071 31.96061,-132.03147 0.9935,-11.15644 2.8368,-10.92622 -31.93131,-3.98803 -28.1025,5.60802 -36.5,7.86554 -36.5,9.81234 0,3.00418 -3.4636,26.25819 -5.086,34.1469 -6.0316,29.3271 -18.8413,66.00475 -32.725,93.70049 -16.46075,32.83656 -34.78812,59.60598 -59.40831,86.77326 -5.92938,6.5428 -10.78069,12.75381 -10.78069,13.80224 0,1.67084 31.38686,44.58356 36.98112,50.56132 2.83587,3.03026 3.64254,2.50826 15.79735,-10.22253 z m -640.67121,-19.71068 c 23.4086,-29.67239 26.8927,-34.39716 26.8927,-36.46893 0,-1.21578 -3.2026,-6.0468 -7.2999,-11.01175 -19.258,-23.33581 -31.8173,-42.00976 -44.2852,-65.84568 -22.4571,-42.93349 -36.5657,-88.05993 -42.3427,-135.43335 -1.2591,-10.32569 -2.3591,-15.78214 -3.3892,-16.81226 -1.4789,-1.47888 -54.8749,-15.14348 -59.4644,-15.21756 -1.2547,-0.0203 -2.5241,0.59563 -2.8207,1.36863 -0.2966,0.773 0.1865,10.5605 1.0736,21.75 6.8031,85.81236 36.4515,165.75909 86.5604,233.40974 16.2217,21.90047 29.9328,37.4348 33.0412,37.4348 0.913,0 6.254,-5.84675 12.0342,-13.17364 z m 579.87718,-16.57636 c -0.0135,-0.6499 -45.75487,-62.11591 -174.96488,-235.11291 -17.3142,-23.18171 -32.1642,-42.343 -33,-42.58065 -2.6511,-0.75381 -58.8209,-1.08793 -59.5548,-0.35426 -0.3864,0.38621 0.8135,2.44824 2.6664,4.58231 3.0667,3.5322 113.3517,118.99367 219.65546,229.96551 37.28345,38.92068 45.26213,46.59965 45.19782,43.5 z M -1309.1066,611.40767 c 73.5121,-55.10842 134.017,-100.96658 134.4553,-101.90702 0.4383,-0.94044 0.9652,-14.87239 1.1708,-30.95989 0.3052,-23.87214 0.1292,-29.25 -0.9572,-29.25 -0.7322,0 -11.4553,9.76034 -23.8293,21.68964 -12.3739,11.92931 -47.023,45.32369 -76.998,74.20974 -115.4801,111.28485 -171,165.27349 -171,166.28367 0,0.57762 0.7875,0.84338 1.75,0.59059 0.9625,-0.25278 61.8963,-45.54832 135.4084,-100.65673 z m 401.95896,72.1124 c 9.52702,-10.02772 22.98508,-27.44765 33.39755,-43.22931 25.22087,-38.22604 42.41198,-80.91529 51.44933,-127.75989 2.478,-12.8445 2.3975,-15.62203 -0.4642,-16.01417 -1.1,-0.15073 -27.425,4.93647 -58.5,11.30489 -31.075,6.36842 -76.20636,15.5985 -100.29191,20.5113 -24.08553,4.9128 -44.70803,9.42261 -45.82763,10.02181 -1.1196,0.59919 -1.8021,1.69804 -1.5166,2.44187 0.5849,1.52436 107.7698,144.74638 110.94335,148.24419 1.12278,1.2375 2.35327,2.25 2.73442,2.25 0.38115,0 4.01521,-3.49681 8.07569,-7.77069 z m -507.91456,-27.96898 c 49.2854,-61.54001 95.1179,-119.77068 95.5399,-121.38444 0.3205,-1.22572 -0.2939,-2.1543 -1.8835,-2.84627 -4.4583,-1.94082 -190.9787,-48.02962 -194.3749,-48.02962 -1.2486,0 -2.5148,0.63723 -2.8137,1.41606 -0.735,1.91522 1.9168,20.48307 4.9391,34.58394 9.2468,43.14225 21.6912,74.84506 43.9046,111.84914 12.9068,21.5007 33.7447,48.3449 36.3014,46.76479 0.5279,-0.3263 8.8021,-10.38542 18.3871,-22.3536 z m 138.2347,-173.72367 c 15.7228,-19.77983 28.4328,-36.42983 28.2444,-37 -0.5273,-1.59589 -19.7736,-2.28511 -97.6819,-3.49799 -39.325,-0.61221 -96.925,-1.56475 -128,-2.11674 -31.075,-0.55199 -77.2,-1.36614 -102.5,-1.80921 -25.3,-0.44307 -46.5625,-0.60154 -47.25,-0.35216 -0.6875,0.24938 -1.25,1.26367 -1.25,2.25398 0,1.53181 4.6645,2.94711 31.25,9.48187 17.1875,4.22472 70.175,17.27505 117.75,29.00073 167.9311,41.38952 168.1773,41.44848 169.6753,40.63841 0.6464,-0.34955 14.0394,-16.81905 29.7622,-36.59889 z m 571.56255,-28.99812 c 0,-1.77508 7.8083,0.25899 -81.00001,-21.10061 -40.425,-9.72277 -82.5,-19.84615 -93.5,-22.4964 -125.80014,-30.3093 -157.90194,-37.81535 -159.02474,-37.1832 -2.0971,1.18065 -58.4753,72.40946 -58.4753,73.87831 0,0.72889 1.0125,1.52985 2.25,1.7799 1.2375,0.25006 48.6,1.17379 105.25004,2.05274 204.526,3.17333 229.1315,3.57173 237.5,3.84553 4.675,0.15295 17.1625,0.36969 27.75001,0.48164 16.3117,0.17248 19.25,-0.0195 19.25,-1.25791 z m -471.47955,-8.57168 c 0.3512,-0.56823 -2.6949,-4.50573 -6.769,-8.75 -4.0741,-4.24427 -37.2778,-38.99186 -73.7859,-77.21686 -98.7219,-103.36465 -171.2818,-179.072 -175.2357,-182.83691 -2.2936,-2.18394 -3.7459,-2.94622 -4.2033,-2.20619 -0.3843,0.62189 -0.2728,1.6735 0.2478,2.3369 0.5206,0.66341 15.0486,20.3312 32.2845,43.7062 17.2358,23.375 45.0573,60.95 61.8255,83.5 16.7682,22.55 47.132,63.43087 67.475,90.84638 20.3431,27.41551 37.9219,50.22448 39.064,50.68661 3.1065,1.25696 58.3176,1.19518 59.0971,-0.0661 z m 44.499,-39.67311 c 21.1643,-20.18844 72.2305,-68.88886 113.4805,-108.22317 96.55702,-92.07277 123.50004,-118.07239 123.50004,-119.17571 0,-0.49218 -0.5625,-0.88409 -1.25,-0.87092 -1.26622,0.0242 -6.81981,4.10599 -99.42407,73.07393 -28.50427,21.22883 -79.50097,59.19076 -113.32597,84.35985 -33.825,25.16908 -62.0625,46.47354 -62.75,47.34325 -1.8272,2.31151 -1.8085,60.19902 0.019,60.19902 0.6982,0 18.5857,-16.51781 39.75,-36.70625 z m 414.62845,13.29278 c -4.3303,-87.66427 -40.25291,-180.93858 -96.89321,-251.58653 -16.48556,-20.56257 -28.82416,-33.57106 -31.0369,-32.72195 -2.20435,0.84589 -38.58101,46.57268 -39.33728,49.4484 -0.43035,1.63644 0.38841,3.35894 3.08967,6.5 24.51975,28.51185 42.90125,55.56359 57.33931,84.38524 20.2775,40.47865 32.2383,80.712 38.5709,129.7438 0.7814,6.05039 2.0035,11.45298 2.7608,12.20532 1.6421,1.63127 62.77181,16.39928 64.75601,15.64406 1.1444,-0.4356 1.2802,-2.89929 0.7507,-13.61834 z m -863.50245,-6.66287 c 18.5924,-3.98434 28.9365,-6.65257 30.045,-7.75 1.1309,-1.11971 2.377,-5.97639 3.7649,-14.67366 8.1306,-50.95195 24.8297,-97.29919 50.9121,-141.30315 8.8978,-15.01175 28.3449,-41.57273 40.7807,-55.69876 8.174,-9.28498 11.3518,-13.39694 11.3518,-14.68868 0,-1.00186 -35.5248,-48.3977 -36.9238,-49.26232 -1.7678,-1.09255 -23.6715,22.64228 -38.7163,41.95291 -20.3426,26.11062 -39.5066,58.39768 -56.054,94.43875 -18.8006,40.94843 -33.2648,96.78136 -36.8456,142.22675 -0.6998,8.88153 -0.3403,10.8345 1.9942,10.8345 0.735,0 14.096,-2.73435 29.691,-6.07634 z m 762.32984,-4.88367 c 0.819,-1.32519 -3.9892,-29.95689 -7.47973,-44.53999 -5.35289,-22.36387 -16.77676,-53.14391 -28.09501,-75.69816 -12.23324,-24.37757 -32.40245,-53.89763 -49.31313,-72.17569 -3.14798,-3.40252 -3.78562,-3.70669 -5.24074,-2.5 -4.39764,3.64685 -116.44773,144.11093 -116.15823,145.61402 0.257,1.33435 8.7064,3.70195 41.3173,11.5774 120.59212,29.12274 160.20564,38.55445 162.18524,38.61519 1.205,0.037 2.458,-0.36476 2.7843,-0.89277 z M -1401.765,372.69667 c 90.3141,-19.44885 85.2337,-18.26945 85.8728,-19.935 0.5045,-1.31478 -14.267,-22.0035 -52.8144,-73.97091 -36.0766,-48.6366 -55.0355,-73.5 -56.0451,-73.5 -2.629,0 -16.6569,16.48666 -30.631,36 -27.0807,37.81513 -45.4402,79.05553 -55.9511,125.6818 -4.6878,20.79476 -5.7151,28.21572 -4.0484,29.24575 0.6497,0.40156 10.2794,-1.23792 21.3993,-3.64329 11.1198,-2.40536 52.6179,-11.35062 92.2179,-19.87835 z m 230.9028,-16.65591 c 0.3342,-7.2875 1.5194,-58.475 2.6338,-113.75 1.1143,-55.275 2.6849,-131.1 3.4901,-168.5 1.8451,-85.696971 1.8461,-86.500001 0.1033,-86.500001 -1.6988,0 1.5707,-12.54703 -32.7025,125.500001 -42.7129,172.04086 -47.9275,193.42682 -47.9275,196.55814 0,3.287 -3.3754,0.30425 39.5,34.90554 17.05,13.7597 31.7414,25.02184 32.6476,25.02698 1.4172,0.008 1.7324,-1.84261 2.2552,-13.24066 z m 108.0972,-65.86691 c 53.0837,-39.15071 133.53684,-99.13362 134.02572,-99.92464 0.9949,-1.60979 -0.67381,-3.42502 -12.08165,-13.14248 -26.85438,-22.87516 -55.02817,-40.15761 -90.94407,-55.78714 -17.2387,-7.50177 -26.0401,-10.58107 -43,-15.04415 -27.2821,-7.17942 -45.5487,-10.33296 -46.9277,-8.10159 -0.5543,0.89681 38.5775,193.90284 40.5228,199.86691 0.583,1.7875 1.5876,3.23785 2.2325,3.223 0.6448,-0.0148 7.9224,-5.00531 16.1724,-11.08991 z m -171.6296,-89.47947 c 13.2713,-52.853 24.1296,-97.26395 24.1296,-98.69098 0,-1.42703 -0.4369,-2.86466 -0.971,-3.19472 -0.5341,-0.33007 -4.9216,-0.0891 -9.75,0.53539 -44.4765,5.75276 -100.6024,26.51953 -138.2881,51.16705 -24.0551,15.73274 -44.7721,32.63977 -43.2177,35.2697 0.6807,1.15175 77.2993,62.83565 121.6183,97.91217 16.1996,12.82121 20.1197,15.49776 21.1205,14.42052 0.6759,-0.72751 12.0872,-44.56612 25.3584,-97.41913 z m 360.37964,-50.88512 c 16.94805,-12.65337 24.75,-19.06875 24.75,-20.35142 0,-3.50986 -22.38041,-23.63039 -46.5,-41.80463 -35.21151,-26.53206 -81.48617,-51.228531 -123.01864,-65.654191 -30.8876,-10.72831 -63.5697,-18.08194 -98.9814,-22.27125 -16.4615,-1.94744 -23.3877,-1.89314 -24.187,0.18962 -0.5767,1.50306 9.5002,52.76935 11.818,60.123821 1.1423,3.62438 1.3189,3.69186 13.869,5.29926 18.7262,2.39842 47.733,9.45486 72.5,17.63696 45.84991,15.14711 90.50069,40.91923 129.29643,74.62896 6.76302,5.8764 13.06302,10.68364 14,10.68276 0.93699,-8.9e-4 12.84111,-8.31684 26.45361,-18.47989 z m -552.22254,12.79405 c 1.3599,-0.9281 5.6225,-4.45448 9.4725,-7.83641 54.8367,-48.16987 125.6287,-79.76489 200.5,-89.48471 15.0028,-1.94767 15.6477,-2.25451 17.3649,-8.26252 4.3056,-15.063451 14.5185,-57.108641 14.0543,-57.859661 -1.7109,-2.76837 -35.1556,0.37808 -65.9192,6.20163 -73.2673,13.8695 -140.1317,45.19743 -198.9886,93.231911 -13.609,11.1066 -27.5114,24.30133 -27.5114,26.11093 0,0.66665 1.2375,2.35388 2.75,3.74939 4.9621,4.57831 44.2416,35.83689 45.0326,35.83689 0.4248,0 1.8851,-0.75935 3.2449,-1.68745 z"
           style="fill:#000000" />
        <g
           style="fill:#000000"
           transform="translate(-157.5838,165.66502)"
           id="g3156">
          <path
             style="fill:#000000;fill-opacity:1"
             d="m -662.28887,-345.17072 c -26.12811,-52.2589 -47.48484,-95.03697 -47.45941,-95.0624 0.051,-0.051 -0.78532,-0.41003 32.73917,14.05496 37.79604,16.30807 51.46138,22.18361 57.14174,24.56861 l 5.30427,2.22709 3.85107,-1.60212 c 5.69449,-2.36902 46.20187,-19.84393 81.10425,-34.98841 5.33377,-2.31437 9.72199,-4.18372 9.7516,-4.1541 0.32291,0.32291 -7.71742,16.61185 -40.97534,83.01209 -36.96617,73.80384 -53.19931,106.03914 -53.72147,106.67854 -0.21767,0.26653 -2.8228,-4.90349 -47.73588,-94.73426 l 0,0 z"
             id="path3158"
             inkscape:connector-curvature="0" />
          <path
             inkscape:connector-curvature="0"
             id="path3160"
             d="m -479.45126,-347.54103 c -26.12811,52.2589 -47.48484,95.03698 -47.45941,95.06241 0.051,0.051 -0.78532,0.41003 32.73917,-14.05497 37.79604,-16.30807 51.46138,-22.18361 57.14174,-24.56861 l 5.30427,-2.22709 3.85107,1.60212 c 5.69449,2.36902 46.20187,19.84393 81.10425,34.98842 5.33377,2.31437 9.72199,4.18372 9.7516,4.1541 0.32291,-0.32291 -7.71742,-16.61186 -40.97534,-83.0121 -36.96617,-73.80384 -53.19931,-106.03913 -53.72147,-106.67853 -0.21767,-0.26653 -2.8228,4.90349 -47.73588,94.73425 l 0,0 z"
             style="fill:#000000;fill-opacity:1" />
        </g>
        <g
           style="fill:#000000"
           transform="matrix(0.86826694,0,0,0.86826694,-85.786904,-4.3082571)"
           id="g3162">
          <path
             sodipodi:nodetypes="ccscccccscsssssscsscsssccsscc"
             inkscape:connector-curvature="0"
             id="path3164"
             d="m -815.6682,83.241255 c -5.4527,-6.23552 -8.042,-7.6169 -9.7918,-5.22391 -0.7685,1.05103 -1.4423,9.27362 -1.9152,23.372545 -0.4442,13.24078 -1.1593,22.27067 -1.8278,23.07909 -0.6039,0.7304 -3.3539,2.47113 -6.1111,3.86828 -2.7571,1.39716 -6.6969,3.65466 -8.7551,5.01669 -2.0581,1.36202 -4.218,2.18223 -4.7998,1.82269 -2.2362,-1.38203 -1.1471,-21.2096 2.4188,-44.035665 0.8593,-5.5 1.8439,-14.99795 2.1882,-21.10656 l 0.6259,-11.10656 -7.3953,-6.14556 c -5.0646,-4.20875 -8.5771,-6.34275 -11.1453,-6.77125 -2.0625,-0.34413 -3.75,-1.00758 -3.75,-1.47433 0,-1.37156 14.2685,-12.74631 16.7795,-13.37654 1.2635,-0.31712 3.7425,0.11319 5.5089,0.95624 5.7523,2.74544 23.7911,18.55394 44.4985,38.99682 11.1579,11.01526 20.6528,20.15523 21.1,20.31105 0.4471,0.15581 1.36,-0.37583 2.0286,-1.18144 1.4466,-1.74304 1.8566,-25.36605 0.6792,-39.13294 l -0.7724,-9.03107 9.4784,-6.71893 c 5.2132,-3.69541 10.0484,-6.71893 10.745,-6.71893 0.9963,0 1.134,3.57329 0.6455,16.75 -1.2785,34.48881 -2.7123,66.977435 -3.2549,73.754105 l -0.5609,7.00411 -7.3993,4.84201 c -4.0697,2.6631 -7.9135,4.67064 -8.5418,4.4612 -0.6283,-0.20944 -2.2691,-3.0525 -3.6461,-6.31791 -2.8377,-6.72906 -8.8009,-15.41423 -16.1307,-23.49352"
             style="fill:#000000" />
          <path
             sodipodi:nodetypes="ccscscssccsccscccsccssscssccc"
             inkscape:connector-curvature="0"
             id="path3166"
             d="m -734.7109,74.831817 0,-14 -4.5,-0.2637 c -6.0112,-0.3523 -9.2119,-1.1293 -8.821,-2.1414 0.1765,-0.4573 3.751,-3.581 7.9432,-6.9414 l 7.6221,-6.11 32.1279,0.6395 c 17.6703,0.3518 32.1278,0.9175 32.1278,1.2572 0,1.4035 -12.716,13.0321 -15.3151,14.0055 -1.5483,0.5799 -7.6233,1.0605 -13.5,1.068 -12.1302,0.015 -14.7783,0.494 -15.6891,2.8349 -0.3534,0.9083 -0.8944,5.4842 -1.2021,10.1687 -0.4735,7.2069 -0.301,8.7318 1.1216,9.9124 1.2176,1.0105 6.2644,1.5573 18.3022,1.9828 10.3733,0.3667 16.7537,0.9882 16.9738,1.6534 0.1939,0.5863 -2.2448,3.8105 -5.4193,7.165 -6.6123,6.986903 -9.827,8.254903 -20.9506,8.263603 -10.3352,0.01 -10.4421,0.181 -10.0997,16.3468 l 0.2783,13.1418 3,0.6401 c 1.65,0.3521 13.2375,0.6934 25.75,0.7585 12.5125,0.065 22.75,0.5136 22.75,0.9967 0,0.4832 -3.0377,4.0832 -6.7504,8 l -6.7504,7.1216 -15.4996,0 c -8.5248,0 -21.8171,-0.2927 -29.5386,-0.6459 l -14.039,-0.6423 0.039,-19.6041 0.039,-19.604"
             style="fill:#000000" />
        </g>
        <g
           style="fill:#000000"
           transform="matrix(0.89728227,0,0,0.89728227,-36.056193,98.765927)"
           id="g3168">
          <path
             style="fill:#000000"
             d="m -797.55938,765.48315 c 7.8714,2.7875 12.1209,6.5951 12.1209,8.723 0,1.3911 -2.2517,3.2812 -7.7291,6.4875 -4.251,2.4884 -8.1291,4.5244 -8.618,4.5244 -0.4889,0 -2.4233,-1.3472 -4.2987,-2.9939 -7.931,-6.9635 -18.0922,-9.6478 -24.6827,-6.5205 -7.3412,3.4837 -9.9201,12.8727 -5.388,19.6165 3.4758,5.172 11.6787,9.4673 28.4845,14.9155 8.3974,2.7223 16.4974,5.5893 18,6.371 7.2453,3.7695 10.9323,11.9211 9.1893,20.3169 -2.754,13.2662 -24.4531,30.961 -42.7125,34.8304 -8.0402,1.7039 -13.8133,1.7248 -21.2448,0.077 l 0,0 c -7.1283,-1.5806 -10.9688,-3.6743 -14.8516,-8.0965 -5.0927,-5.8003 -4.4491,-7.4069 5.7714,-14.407 4.9059,-3.3601 9.6193,-6.1093 10.4743,-6.1093 0.855,0 2.204,1.2375 2.9978,2.75 1.865,3.5536 8.2366,9.5913 12.2531,11.6112 16.9993,8.5487 34.532,-7.069 24.2097,-21.5653 -2.6151,-3.6726 -4.0176,-4.3501 -25.3547,-12.2493 -21.5381,-7.9736 -25.273,-10.0188 -28.3745,-15.5371 -1.9277,-3.43 -2.2767,-5.2418 -1.9308,-10.0239 0.3519,-4.8656 1.044,-6.6403 4.1574,-10.6615 3.9402,-5.089 11.8503,-11.7278 31.4096,-18.332 0,0 18.6651,-6.3662 26.1174,-3.7271 z"
             id="path3170"
             inkscape:connector-curvature="0"
             sodipodi:nodetypes="ssssccsscssccsssscsscsscs" />
          <path
             sodipodi:nodetypes="ccscscssccsccscccsccssscssccc"
             inkscape:connector-curvature="0"
             id="path3172"
             d="m -766.52161,812.17483 0,-14 -4.5,-0.2637 c -6.0112,-0.3523 -9.2119,-1.1293 -8.821,-2.1414 0.1765,-0.4573 3.751,-3.581 7.9432,-6.9414 l 7.6221,-6.11 32.1279,0.6395 c 17.6703,0.3518 32.1278,0.9175 32.1278,1.2572 0,1.4035 -12.716,13.0321 -15.3151,14.0055 -1.5483,0.5799 -7.6233,1.0605 -13.5,1.068 -12.1302,0.015 -14.7783,0.494 -15.6891,2.8349 -0.3534,0.9083 -0.8944,5.4842 -1.2021,10.1687 -0.4735,7.2069 -0.301,8.7318 1.1216,9.9124 1.2176,1.0105 6.2644,1.5573 18.3022,1.9828 10.3733,0.3667 16.7537,0.9882 16.9738,1.6534 0.1939,0.5863 -2.2448,3.8105 -5.4193,7.165 -6.6123,6.9869 -9.827,8.2549 -20.9506,8.2636 -10.3352,0.01 -10.4421,0.181 -10.0997,16.3468 l 0.2783,13.1418 3,0.6401 c 1.65,0.3521 13.2375,0.6934 25.75,0.7585 12.5125,0.065 22.75,0.5136 22.75,0.9967 0,0.4832 -3.0377,4.0832 -6.7504,8 l -6.7504,7.1216 -15.4996,0 c -8.5248,0 -21.8171,-0.2927 -29.5386,-0.6459 l -14.039,-0.6423 0.039,-19.6041 0.039,-19.604"
             style="fill:#000000" />
        </g>
        <g
           style="fill:#000000"
           transform="matrix(0.83351091,0,0,0.83351091,-276.15672,169.3237)"
           id="g3174">
          <path
             style="fill:#000000"
             d="m -1642.4027,726.43238 c 7.8714,2.7875 12.1209,6.5951 12.1209,8.723 0,1.3911 -2.2517,3.2812 -7.7291,6.4875 -4.251,2.4884 -8.1291,4.5244 -8.618,4.5244 -0.4889,0 -2.4233,-1.3472 -4.2987,-2.9939 -7.931,-6.9635 -18.0922,-9.6478 -24.6827,-6.5205 -7.3412,3.4837 -9.9201,12.8727 -5.388,19.6165 3.4758,5.172 11.6787,9.4673 28.4845,14.9155 8.3974,2.7223 16.4974,5.5893 18,6.371 7.2453,3.7695 10.9323,11.9211 9.1893,20.3169 -2.754,13.2662 -24.4531,30.961 -42.7125,34.8304 -8.0402,1.7039 -13.8133,1.7248 -21.2448,0.077 l 0,0 c -7.1283,-1.5806 -10.9688,-3.6743 -14.8516,-8.0965 -5.0927,-5.8003 -4.4491,-7.4069 5.7714,-14.407 4.9059,-3.3601 9.6193,-6.1093 10.4743,-6.1093 0.855,0 2.204,1.2375 2.9978,2.75 1.865,3.5536 8.2366,9.5913 12.2531,11.6112 16.9993,8.5487 34.532,-7.069 24.2097,-21.5653 -2.6151,-3.6726 -4.0176,-4.3501 -25.3547,-12.2493 -21.5381,-7.9736 -25.273,-10.0188 -28.3745,-15.5371 -1.9277,-3.43 -2.2767,-5.2418 -1.9308,-10.0239 0.3519,-4.8656 1.044,-6.6403 4.1574,-10.6615 3.9402,-5.089 11.8503,-11.7278 31.4096,-18.332 0,0 18.6651,-6.3662 26.1174,-3.7271 z"
             id="path3176"
             inkscape:connector-curvature="0"
             sodipodi:nodetypes="ssssccsscssccsssscsscsscs" />
          <path
             sodipodi:nodetypes="cscsscsscsssscssscscscscccssc"
             inkscape:connector-curvature="0"
             id="path3178"
             d="m -1520.7143,838.81258 c -0.8131,3.2208 -2.2289,5.1152 -6.1661,8.25 -5.2639,4.1912 -7.6299,4.9955 -8.2933,2.8192 -0.2095,-0.6875 -2.2753,-7.775 -4.5907,-15.75 -5.0749,-17.4802 -13.7668,-41.9401 -15.6229,-43.9643 -1.1772,-1.2838 -1.5351,-1.2717 -2.9051,0.098 -2.3651,2.3651 -20.4375,46.6675 -20.4375,50.1001 0,2.1512 -0.9945,3.9071 -3.5263,6.2262 -4.8294,4.4236 -8.2462,6.1673 -9.5432,4.8703 -0.5659,-0.566 -3.2132,-8.6344 -5.8828,-17.9298 -10.066,-35.0495 -21.558,-67.03998 -25.6691,-71.45548 -1.3082,-1.4051 -2.3786,-3.0408 -2.3786,-3.6349 0,-1.365 12.0666,-11.3104 13.7227,-11.3104 0.6772,0 1.9652,1.1202 2.8622,2.4893 2.1952,3.3502 12.0739,28.96708 19.5751,50.76068 3.3602,9.7625 6.4291,17.75 6.8197,17.75 3.7592,0 12.0531,-23.1661 16.6039,-46.3768 l 1.7405,-8.87688 5.9532,-4.6231 c 8.4457,-6.5587 9.2159,-6.3352 13.3599,3.8768 3.9146,9.64698 13.2405,36.85928 16.3826,47.80378 2.0778,7.2371 4.3122,9.845 6.0765,7.092 0.4919,-0.7677 2.6978,-5.9777 4.902,-11.5779 4.3137,-10.9599 8.4606,-27.0643 9.5171,-36.95928 l 0.6558,-6.1413 8.8296,-6.1087 c 4.8563,-3.3597 9.0928,-6.1086 9.4144,-6.1086 1.2479,0 0.3691,3.0587 -5.4208,18.8666 -3.2969,9.00158 -5.9944,17.22818 -5.9944,18.28138"
             style="fill:#000000" />
        </g>
        <g
           style="fill:#000000"
           transform="matrix(0.85903487,0,0,0.85903487,-236.45638,1.2022384)"
           id="g3180">
          <path
             sodipodi:nodetypes="cscsscsscsssscssscscscscccssc"
             inkscape:connector-curvature="0"
             id="path3182"
             d="m -1479.9926,110.11623 c -0.8131,3.2208 -2.2289,5.1152 -6.1661,8.25 -5.2639,4.1912 -7.6299,4.9955 -8.2933,2.8192 -0.2095,-0.6875 -2.2753,-7.775 -4.5907,-15.75 -5.0749,-17.480197 -13.7668,-41.940097 -15.6229,-43.964297 -1.1772,-1.2838 -1.5351,-1.2717 -2.9051,0.098 -2.3651,2.3651 -20.4375,46.667497 -20.4375,50.100097 0,2.1512 -0.9945,3.9071 -3.5263,6.2262 -4.8294,4.4236 -8.2462,6.1673 -9.5432,4.8703 -0.5659,-0.566 -3.2132,-8.6344 -5.8828,-17.9298 -10.066,-35.049497 -21.558,-67.039977 -25.6691,-71.455477 -1.3082,-1.4051 -2.3786,-3.0408 -2.3786,-3.6349 0,-1.365 12.0666,-11.3104 13.7227,-11.3104 0.6772,0 1.9652,1.1202 2.8622,2.4893 2.1952,3.3502 12.0739,28.96708 19.5751,50.76068 3.3602,9.7625 6.4291,17.75 6.8197,17.75 3.7592,0 12.0531,-23.1661 16.6039,-46.3768 l 1.7405,-8.87688 5.9532,-4.6231 c 8.4457,-6.5587 9.2159,-6.3352 13.3599,3.8768 3.9146,9.64698 13.2405,36.85928 16.3826,47.80378 2.0778,7.2371 4.3122,9.845 6.0765,7.092 0.4919,-0.7677 2.6978,-5.9777 4.902,-11.5779 4.3137,-10.9599 8.4606,-27.0643 9.5171,-36.95928 l 0.6558,-6.1413 8.8296,-6.1087 c 4.8563,-3.3597 9.0928,-6.1086 9.4144,-6.1086 1.2479,0 0.3691,3.0587 -5.4208,18.8666 -3.2969,9.00158 -5.9944,17.22818 -5.9944,18.28138"
             style="fill:#000000" />
          <path
             sodipodi:nodetypes="ccscccccscsssssscsscsssccsscc"
             inkscape:connector-curvature="0"
             id="path3184"
             d="m -1655.8159,50.291809 c -5.4527,-6.23552 -8.042,-7.6169 -9.7918,-5.22391 -0.7685,1.05103 -1.4423,9.27362 -1.9152,23.37255 -0.4442,13.24078 -1.1593,22.27067 -1.8278,23.07909 -0.6039,0.7304 -3.3539,2.47113 -6.1111,3.86828 -2.7571,1.39716 -6.6969,3.65466 -8.7551,5.016691 -2.0581,1.36202 -4.218,2.18223 -4.7998,1.82269 -2.2362,-1.38203 -1.1471,-21.209601 2.4188,-44.035671 0.8593,-5.5 1.8439,-14.99795 2.1882,-21.10656 l 0.6259,-11.10656 -7.3953,-6.14556 c -5.0646,-4.20875 -8.5771,-6.34275 -11.1453,-6.77125 -2.0625,-0.34413 -3.75,-1.00758 -3.75,-1.47433 0,-1.37156 14.2685,-12.7463102 16.7795,-13.3765402 1.2635,-0.31712 3.7425,0.11319 5.5089,0.95623997 5.7523,2.74544003 23.7911,18.55394023 44.4985,38.99682023 11.1579,11.01526 20.6528,20.15523 21.1,20.31105 0.4471,0.15581 1.36,-0.37583 2.0286,-1.18144 1.4466,-1.74304 1.8566,-25.36605 0.6792,-39.13294 l -0.7724,-9.0310702 9.4784,-6.71893 c 5.2132,-3.69541 10.0484,-6.71893 10.745,-6.71893 0.9963,0 1.134,3.57328997 0.6455,16.7500002 -1.2785,34.48881 -2.7123,66.97744 -3.2549,73.75411 l -0.5609,7.00411 -7.3993,4.84201 c -4.0697,2.663101 -7.9135,4.670641 -8.5418,4.461201 -0.6283,-0.20944 -2.2691,-3.052501 -3.6461,-6.317911 -2.8377,-6.72906 -8.8009,-15.41423 -16.1307,-23.49352"
             style="fill:#000000" />
        </g>
      </g>
      <g
         style="fill:#000000;fill-opacity:1"
         id="g3134">
        <path
           style="fill:#000000;fill-opacity:1"
           d="m -1208.265,1038.9036 c -7.1283,-1.5806 -10.9688,-3.6743 -14.8516,-8.0965 -5.0927,-5.8003 -4.4491,-7.4069 5.7714,-14.407 4.9059,-3.3601 9.6193,-6.1093 10.4743,-6.1093 0.855,0 2.204,1.2375 2.9978,2.75 1.865,3.5536 8.2366,9.5913 12.2531,11.6112 16.9993,8.5487 34.532,-7.069 24.2097,-21.5653 -2.6151,-3.6726 -4.0176,-4.3501 -25.3547,-12.2493 -21.5381,-7.9736 -25.273,-10.0188 -28.3745,-15.5371 -1.9277,-3.43 -2.2767,-5.2418 -1.9308,-10.0239 0.3519,-4.8656 1.044,-6.6403 4.1574,-10.66144 3.9402,-5.089 12.2967,-11.9957 20.0236,-16.5496 4.2336,-2.4951 4.6185,-3.0443 4.5561,-6.5 -0.037,-2.076 -0.825,-6.6916 -1.75,-10.2567 -2.0148,-7.7655 -3.282,-8.6179 -14.1108,-9.4917 -12.9087,-1.0416 -44.7442,-6.4435 -62.9989,-10.6898 -31.343,-7.2908 -78.228,-24.6616 -104.0721,-38.5587 -46.5165,-25.0131 -83.4016,-52.21344 -113.3794,-83.61009 -26.6767,-27.93921 -33.0885,-35.26145 -46.9941,-53.66761 -35.1667,-46.54808 -60.0568,-97.17981 -74.9729,-152.51043 -10.6741,-39.59472 -14.7707,-64.8893 -16.3297,-100.82623 -0.4968,-11.45198 -1.0064,-15.25069 -2.2338,-16.65155 -1.7611,-2.01005 -34.4153,-11.01179 -39.9457,-11.01179 -2.9795,0 -3.458,0.46023 -5.6639,5.44827 -2.7517,6.22199 -7.9011,21.0379 -9.4649,27.23251 -0.8131,3.22079 -2.2289,5.11516 -6.1661,8.25 -5.2639,4.19114 -7.6299,4.99547 -8.2933,2.81922 -0.2095,-0.6875 -2.2753,-7.775 -4.5907,-15.75 -5.0749,-17.48022 -13.7668,-41.94011 -15.6229,-43.96429 -1.1772,-1.28389 -1.5351,-1.27179 -2.9051,0.0983 -2.3651,2.36501 -20.4375,46.66742 -20.4375,50.10001 0,2.15122 -0.9945,3.90717 -3.5263,6.22621 -4.8294,4.42359 -8.2462,6.1673 -9.5432,4.87032 -0.5659,-0.56598 -3.2132,-8.63439 -5.8828,-17.9298 -10.066,-35.04947 -21.558,-67.03996 -25.6691,-71.45547 -1.3082,-1.40509 -2.3786,-3.04082 -2.3786,-3.63494 0,-1.36501 12.0666,-11.31034 13.7227,-11.31034 0.6772,0 1.9652,1.12017 2.8622,2.48928 2.1952,3.35021 12.0739,28.96705 19.5751,50.76072 3.3602,9.7625 6.4291,17.75 6.8197,17.75 3.7592,0 12.0531,-23.16618 16.6039,-46.37688 l 1.7405,-8.87689 5.9532,-4.62311 c 8.4457,-6.55865 9.2159,-6.33514 13.3599,3.87688 3.9146,9.64694 13.2405,36.85926 16.3826,47.80378 2.0778,7.23704 4.3122,9.84494 6.0765,7.09194 0.4919,-0.76765 2.6978,-5.9777 4.902,-11.57789 4.3137,-10.95983 8.4606,-27.06426 9.5171,-36.95922 l 0.6558,-6.14139 8.8296,-6.10861 c 4.8563,-3.35974 9.0928,-6.10861 9.4144,-6.10861 1.2479,0 0.3691,3.05865 -5.4208,18.86653 -3.2969,9.0016 -5.9944,17.22822 -5.9944,18.28139 0,1.05317 0.736,2.1973 1.6357,2.54251 1.6944,0.65022 28.5411,-4.33734 31.5914,-5.86902 2.8529,-1.43257 3.4951,-3.6995 5.1907,-18.32141 6.9491,-59.92422 21.2226,-110.17516 45.9643,-161.82071 33.6046,-70.14587 90.7088,-135.88584 156.1179,-179.72732 24.5154,-16.431791 64.8785,-37.619201 92.085,-48.337231 40.9616,-16.13685 92.3602,-27.49379 136.415,-30.14202 14.9167,-0.89668 16.5422,-1.5405 18.3798,-7.28003 2.2874,-7.14476 13.308,-51.118996 14.0148,-55.921716 0.5861,-3.983 0.3455,-4.54563 -4.1361,-9.67069 -5.4527,-6.23552 -8.042,-7.6169 -9.7918,-5.22391 -0.7685,1.05103 -1.4423,9.27362 -1.9152,23.37255 -0.4442,13.24078 -1.1593,22.270666 -1.8278,23.079086 -0.6039,0.7304 -3.3539,2.47113 -6.1111,3.86828 -2.7571,1.39716 -6.6969,3.65466 -8.7551,5.01669 -2.0581,1.36202 -4.218,2.18223 -4.7998,1.82269 -2.2362,-1.38203 -1.1471,-21.209596 2.4188,-44.035666 0.8593,-5.5 1.8439,-14.99795 2.1882,-21.106563 l 0.6259,-11.10656 -7.3953,-6.14556 c -5.0646,-4.20875 -8.5771,-6.34275 -11.1453,-6.77125 -2.0625,-0.34413 -3.75,-1.00758 -3.75,-1.47433 0,-1.37156 14.2685,-12.74631 16.7795,-13.37654 1.2635,-0.31712 3.7425,0.11319 5.5089,0.95624 5.7523,2.74544 23.7911,18.55394 44.4985,38.99682 11.1579,11.015263 20.6528,20.155233 21.1,20.311053 0.4471,0.15581 1.36,-0.37583 2.0286,-1.18144 1.4466,-1.74304 1.8566,-25.366053 0.6792,-39.132943 l -0.7724,-9.03107 9.4784,-6.71893 c 5.2132,-3.69541 10.0484,-6.71893 10.745,-6.71893 0.9963,0 1.134,3.57329 0.6455,16.75 -1.2785,34.488813 -2.7123,66.977443 -3.2549,73.754113 l -0.5609,7.004106 -7.3993,4.84201 c -4.0697,2.6631 -7.9135,4.67064 -8.5418,4.4612 -0.6283,-0.20944 -2.2691,-3.0525 -3.6461,-6.31791 -2.8377,-6.72906 -8.8009,-15.414226 -16.1307,-23.493516 -4.5739,-5.04157 -5.1257,-5.36814 -6.62,-3.91796 -1.5047,1.46033 -1.268,3.4152 3.0766,25.410376 3.091,15.64894 5.2694,24.39106 6.346,25.46767 1.1756,1.17556 5.1616,1.99221 14.0896,2.88665 63.8665,6.39835 117.6968,21.40166 170.59471,47.54727 24.0434,11.88382 34.69294,18.06378 56.35563,32.703341 50.88834,34.39014 90.9476,74.40363 123.8062,123.66463 33.1998,49.77268 55.6915,102.33867 68.56181,160.23802 5.6363,25.35555 7.8833,41.66527 10.5278,76.41338 0.6395,8.40308 1.2177,11.19645 2.5136,12.14406 2.328,1.70222 30.793,8.69185 33.7146,8.27863 2.3722,-0.33553 2.376,-0.35846 2.376,-14.33607 l 0,-14 -4.5,-0.26372 c -6.0112,-0.35228 -9.2119,-1.1293 -8.821,-2.14146 0.1765,-0.45729 3.751,-3.58094 7.9432,-6.94145 l 7.6221,-6.11003 32.1279,0.63955 c 17.6703,0.35176 32.1278,0.91751 32.1278,1.25722 0,1.40345 -12.716,13.03212 -15.3151,14.00556 -1.5483,0.57988 -7.6233,1.06047 -13.5,1.06798 -12.1302,0.0155 -14.7783,0.49399 -15.6891,2.83489 -0.3534,0.9083 -0.8944,5.48421 -1.2021,10.16868 -0.4735,7.20697 -0.301,8.73187 1.1216,9.91247 1.2176,1.01051 6.2644,1.55726 18.3022,1.98278 10.3733,0.36668 16.7537,0.9882 16.9738,1.65343 0.1939,0.58625 -2.2448,3.81047 -5.4193,7.16494 -6.6123,6.98694 -9.827,8.25494 -20.9506,8.26358 -10.3352,0.008 -10.4421,0.18102 -10.0997,16.34686 l 0.2783,13.14176 3,0.64016 c 1.65,0.3521 13.2375,0.69341 25.75,0.75849 12.5125,0.0651 22.75,0.51359 22.75,0.99671 0,0.48312 -3.0377,4.08312 -6.7504,8 l -6.7504,7.1216 -15.4996,-0.004 c -8.5248,-0.002 -21.8171,-0.29269 -29.5386,-0.64595 l -14.039,-0.6423 0.039,-19.60404 0.039,-19.60405 -3.6158,-0.30236 c -3.9794,-0.33277 -27.2362,4.09438 -31.3463,5.96706 -3.0253,1.37839 -3.099,1.65946 -4.5491,17.3353 -5.2223,56.45291 -21.9225,115.44325 -46.68331,164.89972 -30.7363,61.39181 -75.0569,117.46835 -123.09488,155.74549 -80.63748,64.25269 -172.12406,98.63079 -278.00256,104.46559 -13.7661,0.7587 -13.1233,0.3734 -15.8306,9.4899 -0.8075,2.719 -1.1647,5.4346 -0.7938,6.0348 0.3709,0.6001 2.7538,2.0084 5.2954,3.1296 7.64,3.3703 12.1209,6.5951 12.1209,8.723 0,1.3911 -2.2517,3.2812 -7.7291,6.4875 -4.251,2.4884 -8.1291,4.5244 -8.618,4.5244 -0.4889,0 -2.4233,-1.3472 -4.2987,-2.9939 -7.931,-6.9635 -18.0922,-9.6478 -24.6827,-6.5205 -7.3412,3.4837 -9.9201,12.8727 -5.388,19.61648 3.4758,5.172 11.6787,9.4673 28.4845,14.9155 8.3974,2.7223 16.4974,5.5893 18,6.371 7.2453,3.7695 10.9323,11.9211 9.1893,20.3169 -2.754,13.2662 -24.4531,30.961 -42.7125,34.8304 -8.0402,1.7039 -13.8133,1.7248 -21.2448,0.077 z m 34.872,-150.86284 c 8.6088,-35.7182 60.0555,-248.85468 61.612,-255.25 8.6337,-35.47345 11.516,-48.10183 11.516,-50.4556 0,-2.45367 -4.2237,-6.19414 -35.6871,-31.60443 -19.9362,-16.10072 -36.5976,-28.84755 -37.75,-28.88067 -2.3271,-0.0669 -1.8303,-17.47587 -4.4935,157.4407 -0.6239,40.975 -1.564,99.7 -2.0891,130.5 -0.5251,30.8 -0.9604,65.7875 -0.9675,77.75 -0.017,29.0209 0.97,29.0837 7.8592,0.5 z m 55.128,8.258 c 42.58,-4.3662 87.0822,-16.0617 129.50004,-34.0336 20.3245,-8.6112 26.6185,-11.7238 45,-22.2542 26.5595,-15.2153 51.72082,-33.18328 74.68592,-53.33393 8.19973,-7.19482 9.86438,-9.13382 9.61531,-11.19995 -0.23265,-1.92985 -5.87907,-6.89696 -24.80123,-21.81746 -13.475,-10.6253 -25.24594,-19.33001 -26.15765,-19.3438 -0.9117,-0.0138 -7.30749,4.71269 -14.21286,10.50327 -19.23531,16.12999 -46.17753,33.63737 -70.98982,46.13002 -43.50121,21.90225 -84.55571,34.28555 -129.93801,39.19315 -11.5585,1.2499 -17.2628,2.2811 -18.2875,3.3057 -0.8351,0.8351 -4.6133,15.0285 -8.603,32.3187 -6.2223,26.9657 -6.9241,30.9684 -5.5996,31.9368 1.6523,1.2082 20.951,0.5269 39.7884,-1.4047 z m -85.5818,0.385 c 0.9014,-0.3459 1.5706,-1.7439 1.5559,-3.25 -0.05,-5.0898 -12.6613,-61.2584 -14.0609,-62.6247 -0.7773,-0.7588 -8.054,-2.5331 -16.1705,-3.9428 -29.0539,-5.04646 -61.9283,-15.14684 -90.7427,-27.87997 -36.9315,-16.3201 -70.6652,-38.43788 -102.9444,-67.49636 -6.3556,-5.72145 -12.4922,-10.84452 -13.637,-11.3846 -1.7979,-0.84822 -5.3677,1.51494 -26.2117,17.35174 -13.2717,10.08353 -24.3912,18.98153 -24.71,19.77334 -1.0644,2.64346 24.3579,26.84383 47.5031,45.21989 20.1548,16.00181 50.2986,35.35746 74.1518,47.61356 45.2626,23.2567 106.2098,41.4601 155.8482,46.5481 6.5336,0.6697 7.8344,0.6796 9.4182,0.072 z m 95.0818,-101.50267 c 46.0162,-7.99091 85.0752,-22.80189 125.00004,-47.39939 21.77546,-13.41578 46.5,-32.62147 46.5,-36.12057 0,-1.25862 -142.12584,-115.76178 -146.77934,-118.25228 -1.2419,-0.66464 -2.3324,-0.74638 -2.67,-0.20013 -0.491,0.79443 -36.3939,149.85791 -45.6003,189.32563 -3.6501,15.64769 -3.4159,16.96572 2.8615,16.10472 2.0285,-0.27822 11.3381,-1.83431 20.6881,-3.45798 z m -114.7039,-2.46125 c 0.2541,-1.77714 -3.6476,-21.49255 -16.3125,-82.42908 -1.4289,-6.875 -7.3127,-35.225 -13.0751,-63 -12.388,-59.71051 -11.9732,-58.0174 -14.197,-57.94188 -2.5337,0.0861 -145.6261,108.14096 -146.0379,110.27913 -0.4437,2.30417 1.1779,4.08735 12.8264,14.10401 42.1736,36.26539 88.0228,60.76466 140.5542,75.10436 24.4423,6.67211 35.6712,7.87533 36.2419,3.88346 z m 381.98241,-32.89204 c 38.77523,-40.61266 70.06413,-89.25778 91.69223,-142.55452 17.3846,-42.83985 27.87851,-86.19071 31.96061,-132.03147 0.9935,-11.15644 2.8368,-10.92622 -31.93131,-3.98803 -28.1025,5.60802 -36.5,7.86554 -36.5,9.81234 0,3.00418 -3.4636,26.25819 -5.086,34.1469 -6.0316,29.3271 -18.8413,66.00475 -32.725,93.70049 -16.46075,32.83656 -34.78812,59.60598 -59.40831,86.77326 -5.92938,6.5428 -10.78069,12.75381 -10.78069,13.80224 0,1.67084 31.38686,44.58356 36.98112,50.56132 2.83587,3.03026 3.64254,2.50826 15.79735,-10.22253 z m -640.67121,-19.71068 c 23.4086,-29.67239 26.8927,-34.39716 26.8927,-36.46893 0,-1.21578 -3.2026,-6.0468 -7.2999,-11.01175 -19.258,-23.33581 -31.8173,-42.00976 -44.2852,-65.84568 -22.4571,-42.93349 -36.5657,-88.05993 -42.3427,-135.43335 -1.2591,-10.32569 -2.3591,-15.78214 -3.3892,-16.81226 -1.4789,-1.47888 -54.8749,-15.14348 -59.4644,-15.21756 -1.2547,-0.0203 -2.5241,0.59563 -2.8207,1.36863 -0.2966,0.773 0.1865,10.5605 1.0736,21.75 6.8031,85.81236 36.4515,165.75909 86.5604,233.40974 16.2217,21.90047 29.9328,37.4348 33.0412,37.4348 0.913,0 6.254,-5.84675 12.0342,-13.17364 z m 579.87718,-16.57636 c -0.0135,-0.6499 -45.75487,-62.11591 -174.96488,-235.11291 -17.3142,-23.18171 -32.1642,-42.343 -33,-42.58065 -2.6511,-0.75381 -58.8209,-1.08793 -59.5548,-0.35426 -0.3864,0.38621 0.8135,2.44824 2.6664,4.58231 3.0667,3.5322 113.3517,118.99367 219.65546,229.96551 37.28345,38.92068 45.26213,46.59965 45.19782,43.5 z M -1309.1066,611.40767 c 73.5121,-55.10842 134.017,-100.96658 134.4553,-101.90702 0.4383,-0.94044 0.9652,-14.87239 1.1708,-30.95989 0.3052,-23.87214 0.1292,-29.25 -0.9572,-29.25 -0.7322,0 -11.4553,9.76034 -23.8293,21.68964 -12.3739,11.92931 -47.023,45.32369 -76.998,74.20974 -115.4801,111.28485 -171,165.27349 -171,166.28367 0,0.57762 0.7875,0.84338 1.75,0.59059 0.9625,-0.25278 61.8963,-45.54832 135.4084,-100.65673 z m 401.95896,72.1124 c 9.52702,-10.02772 22.98508,-27.44765 33.39755,-43.22931 25.22087,-38.22604 42.41198,-80.91529 51.44933,-127.75989 2.478,-12.8445 2.3975,-15.62203 -0.4642,-16.01417 -1.1,-0.15073 -27.425,4.93647 -58.5,11.30489 -31.075,6.36842 -76.20636,15.5985 -100.29191,20.5113 -24.08553,4.9128 -44.70803,9.42261 -45.82763,10.02181 -1.1196,0.59919 -1.8021,1.69804 -1.5166,2.44187 0.5849,1.52436 107.7698,144.74638 110.94335,148.24419 1.12278,1.2375 2.35327,2.25 2.73442,2.25 0.38115,0 4.01521,-3.49681 8.07569,-7.77069 z m -507.91456,-27.96898 c 49.2854,-61.54001 95.1179,-119.77068 95.5399,-121.38444 0.3205,-1.22572 -0.2939,-2.1543 -1.8835,-2.84627 -4.4583,-1.94082 -190.9787,-48.02962 -194.3749,-48.02962 -1.2486,0 -2.5148,0.63723 -2.8137,1.41606 -0.735,1.91522 1.9168,20.48307 4.9391,34.58394 9.2468,43.14225 21.6912,74.84506 43.9046,111.84914 12.9068,21.5007 33.7447,48.3449 36.3014,46.76479 0.5279,-0.3263 8.8021,-10.38542 18.3871,-22.3536 z m 138.2347,-173.72367 c 15.7228,-19.77983 28.4328,-36.42983 28.2444,-37 -0.5273,-1.59589 -19.7736,-2.28511 -97.6819,-3.49799 -39.325,-0.61221 -96.925,-1.56475 -128,-2.11674 -31.075,-0.55199 -77.2,-1.36614 -102.5,-1.80921 -25.3,-0.44307 -46.5625,-0.60154 -47.25,-0.35216 -0.6875,0.24938 -1.25,1.26367 -1.25,2.25398 0,1.53181 4.6645,2.94711 31.25,9.48187 17.1875,4.22472 70.175,17.27505 117.75,29.00073 167.9311,41.38952 168.1773,41.44848 169.6753,40.63841 0.6464,-0.34955 14.0394,-16.81905 29.7622,-36.59889 z m 571.56255,-28.99812 c 0,-1.77508 7.8083,0.25899 -81.00001,-21.10061 -40.425,-9.72277 -82.5,-19.84615 -93.5,-22.4964 -125.80014,-30.3093 -157.90194,-37.81535 -159.02474,-37.1832 -2.0971,1.18065 -58.4753,72.40946 -58.4753,73.87831 0,0.72889 1.0125,1.52985 2.25,1.7799 1.2375,0.25006 48.6,1.17379 105.25004,2.05274 204.526,3.17333 229.1315,3.57173 237.5,3.84553 4.675,0.15295 17.1625,0.36969 27.75001,0.48164 16.3117,0.17248 19.25,-0.0195 19.25,-1.25791 z m -471.47955,-8.57168 c 0.3512,-0.56823 -2.6949,-4.50573 -6.769,-8.75 -4.0741,-4.24427 -37.2778,-38.99186 -73.7859,-77.21686 -98.7219,-103.36465 -171.2818,-179.072 -175.2357,-182.83691 -2.2936,-2.18394 -3.7459,-2.94622 -4.2033,-2.20619 -0.3843,0.62189 -0.2728,1.6735 0.2478,2.3369 0.5206,0.66341 15.0486,20.3312 32.2845,43.7062 17.2358,23.375 45.0573,60.95 61.8255,83.5 16.7682,22.55 47.132,63.43087 67.475,90.84638 20.3431,27.41551 37.9219,50.22448 39.064,50.68661 3.1065,1.25696 58.3176,1.19518 59.0971,-0.0661 z m 44.499,-39.67311 c 21.1643,-20.18844 72.2305,-68.88886 113.4805,-108.22317 96.55702,-92.07277 123.50004,-118.07239 123.50004,-119.17571 0,-0.49218 -0.5625,-0.88409 -1.25,-0.87092 -1.26622,0.0242 -6.81981,4.10599 -99.42407,73.07393 -28.50427,21.22883 -79.50097,59.19076 -113.32597,84.35985 -33.825,25.16908 -62.0625,46.47354 -62.75,47.34325 -1.8272,2.31151 -1.8085,60.19902 0.019,60.19902 0.6982,0 18.5857,-16.51781 39.75,-36.70625 z m 414.62845,13.29278 c -4.3303,-87.66427 -40.25291,-180.93858 -96.89321,-251.58653 -16.48556,-20.56257 -28.82416,-33.57106 -31.0369,-32.72195 -2.20435,0.84589 -38.58101,46.57268 -39.33728,49.4484 -0.43035,1.63644 0.38841,3.35894 3.08967,6.5 24.51975,28.51185 42.90125,55.56359 57.33931,84.38524 20.2775,40.47865 32.2383,80.712 38.5709,129.7438 0.7814,6.05039 2.0035,11.45298 2.7608,12.20532 1.6421,1.63127 62.77181,16.39928 64.75601,15.64406 1.1444,-0.4356 1.2802,-2.89929 0.7507,-13.61834 z m -863.50245,-6.66287 c 18.5924,-3.98434 28.9365,-6.65257 30.045,-7.75 1.1309,-1.11971 2.377,-5.97639 3.7649,-14.67366 8.1306,-50.95195 24.8297,-97.29919 50.9121,-141.30315 8.8978,-15.01175 28.3449,-41.57273 40.7807,-55.69876 8.174,-9.28498 11.3518,-13.39694 11.3518,-14.68868 0,-1.00186 -35.5248,-48.3977 -36.9238,-49.26232 -1.7678,-1.09255 -23.6715,22.64228 -38.7163,41.95291 -20.3426,26.11062 -39.5066,58.39768 -56.054,94.43875 -18.8006,40.94843 -33.2648,96.78136 -36.8456,142.22675 -0.6998,8.88153 -0.3403,10.8345 1.9942,10.8345 0.735,0 14.096,-2.73435 29.691,-6.07634 z m 762.32984,-4.88367 c 0.819,-1.32519 -3.9892,-29.95689 -7.47973,-44.53999 -5.35289,-22.36387 -16.77676,-53.14391 -28.09501,-75.69816 -12.23324,-24.37757 -32.40245,-53.89763 -49.31313,-72.17569 -3.14798,-3.40252 -3.78562,-3.70669 -5.24074,-2.5 -4.39764,3.64685 -116.44773,144.11093 -116.15823,145.61402 0.257,1.33435 8.7064,3.70195 41.3173,11.5774 120.59212,29.12274 160.20564,38.55445 162.18524,38.61519 1.205,0.037 2.458,-0.36476 2.7843,-0.89277 z M -1401.765,372.69667 c 90.3141,-19.44885 85.2337,-18.26945 85.8728,-19.935 0.5045,-1.31478 -14.267,-22.0035 -52.8144,-73.97091 -36.0766,-48.6366 -55.0355,-73.5 -56.0451,-73.5 -2.629,0 -16.6569,16.48666 -30.631,36 -27.0807,37.81513 -45.4402,79.05553 -55.9511,125.6818 -4.6878,20.79476 -5.7151,28.21572 -4.0484,29.24575 0.6497,0.40156 10.2794,-1.23792 21.3993,-3.64329 11.1198,-2.40536 52.6179,-11.35062 92.2179,-19.87835 z m 230.9028,-16.65591 c 0.3342,-7.2875 1.5194,-58.475 2.6338,-113.75 1.1143,-55.275 2.6849,-131.1 3.4901,-168.5 1.8451,-85.696971 1.8461,-86.500001 0.1033,-86.500001 -1.6988,0 1.5707,-12.54703 -32.7025,125.500001 -42.7129,172.04086 -47.9275,193.42682 -47.9275,196.55814 0,3.287 -3.3754,0.30425 39.5,34.90554 17.05,13.7597 31.7414,25.02184 32.6476,25.02698 1.4172,0.008 1.7324,-1.84261 2.2552,-13.24066 z m 108.0972,-65.86691 c 53.0837,-39.15071 133.53684,-99.13362 134.02572,-99.92464 0.9949,-1.60979 -0.67381,-3.42502 -12.08165,-13.14248 -26.85438,-22.87516 -55.02817,-40.15761 -90.94407,-55.78714 -17.2387,-7.50177 -26.0401,-10.58107 -43,-15.04415 -27.2821,-7.17942 -45.5487,-10.33296 -46.9277,-8.10159 -0.5543,0.89681 38.5775,193.90284 40.5228,199.86691 0.583,1.7875 1.5876,3.23785 2.2325,3.223 0.6448,-0.0148 7.9224,-5.00531 16.1724,-11.08991 z m -171.6296,-89.47947 c 13.2713,-52.853 24.1296,-97.26395 24.1296,-98.69098 0,-1.42703 -0.4369,-2.86466 -0.971,-3.19472 -0.5341,-0.33007 -4.9216,-0.0891 -9.75,0.53539 -44.4765,5.75276 -100.6024,26.51953 -138.2881,51.16705 -24.0551,15.73274 -44.7721,32.63977 -43.2177,35.2697 0.6807,1.15175 77.2993,62.83565 121.6183,97.91217 16.1996,12.82121 20.1197,15.49776 21.1205,14.42052 0.6759,-0.72751 12.0872,-44.56612 25.3584,-97.41913 z m 360.37964,-50.88512 c 16.94805,-12.65337 24.75,-19.06875 24.75,-20.35142 0,-3.50986 -22.38041,-23.63039 -46.5,-41.80463 -35.21151,-26.53206 -81.48617,-51.228531 -123.01864,-65.654191 -30.8876,-10.72831 -63.5697,-18.08194 -98.9814,-22.27125 -16.4615,-1.94744 -23.3877,-1.89314 -24.187,0.18962 -0.5767,1.50306 9.5002,52.76935 11.818,60.123821 1.1423,3.62438 1.3189,3.69186 13.869,5.29926 18.7262,2.39842 47.733,9.45486 72.5,17.63696 45.84991,15.14711 90.50069,40.91923 129.29643,74.62896 6.76302,5.8764 13.06302,10.68364 14,10.68276 0.93699,-8.9e-4 12.84111,-8.31684 26.45361,-18.47989 z m -552.22254,12.79405 c 1.3599,-0.9281 5.6225,-4.45448 9.4725,-7.83641 54.8367,-48.16987 125.6287,-79.76489 200.5,-89.48471 15.0028,-1.94767 15.6477,-2.25451 17.3649,-8.26252 4.3056,-15.063451 14.5185,-57.108641 14.0543,-57.859661 -1.7109,-2.76837 -35.1556,0.37808 -65.9192,6.20163 -73.2673,13.8695 -140.1317,45.19743 -198.9886,93.231911 -13.609,11.1066 -27.5114,24.30133 -27.5114,26.11093 0,0.66665 1.2375,2.35388 2.75,3.74939 4.9621,4.57831 44.2416,35.83689 45.0326,35.83689 0.4248,0 1.8851,-0.75935 3.2449,-1.68745 z"
           id="path3009"
           inkscape:connector-curvature="0" />
        <g
           style="fill:#000000;fill-opacity:1"
           id="g3130"
           transform="translate(-157.5838,165.66502)">
          <path
             inkscape:connector-curvature="0"
             id="path3861"
             d="m -662.28887,-345.17072 c -26.12811,-52.2589 -47.48484,-95.03697 -47.45941,-95.0624 0.051,-0.051 -0.78532,-0.41003 32.73917,14.05496 37.79604,16.30807 51.46138,22.18361 57.14174,24.56861 l 5.30427,2.22709 3.85107,-1.60212 c 5.69449,-2.36902 46.20187,-19.84393 81.10425,-34.98841 5.33377,-2.31437 9.72199,-4.18372 9.7516,-4.1541 0.32291,0.32291 -7.71742,16.61185 -40.97534,83.01209 -36.96617,73.80384 -53.19931,106.03914 -53.72147,106.67854 -0.21767,0.26653 -2.8228,-4.90349 -47.73588,-94.73426 l 0,0 z"
             style="fill:#000000;fill-opacity:1" />
          <path
             style="fill:#000000;fill-opacity:1"
             d="m -479.45126,-347.54103 c -26.12811,52.2589 -47.48484,95.03698 -47.45941,95.06241 0.051,0.051 -0.78532,0.41003 32.73917,-14.05497 37.79604,-16.30807 51.46138,-22.18361 57.14174,-24.56861 l 5.30427,-2.22709 3.85107,1.60212 c 5.69449,2.36902 46.20187,19.84393 81.10425,34.98842 5.33377,2.31437 9.72199,4.18372 9.7516,4.1541 0.32291,-0.32291 -7.71742,-16.61186 -40.97534,-83.0121 -36.96617,-73.80384 -53.19931,-106.03913 -53.72147,-106.67853 -0.21767,-0.26653 -2.8228,4.90349 -47.73588,94.73425 l 0,0 z"
             id="path3863"
             inkscape:connector-curvature="0" />
        </g>
        <g
           style="fill:#000000;fill-opacity:1"
           id="g3126"
           transform="matrix(0.86826694,0,0,0.86826694,-85.786904,-4.3082571)">
          <path
             style="fill:#000000;fill-opacity:1"
             d="m -815.6682,83.241255 c -5.4527,-6.23552 -8.042,-7.6169 -9.7918,-5.22391 -0.7685,1.05103 -1.4423,9.27362 -1.9152,23.372545 -0.4442,13.24078 -1.1593,22.27067 -1.8278,23.07909 -0.6039,0.7304 -3.3539,2.47113 -6.1111,3.86828 -2.7571,1.39716 -6.6969,3.65466 -8.7551,5.01669 -2.0581,1.36202 -4.218,2.18223 -4.7998,1.82269 -2.2362,-1.38203 -1.1471,-21.2096 2.4188,-44.035665 0.8593,-5.5 1.8439,-14.99795 2.1882,-21.10656 l 0.6259,-11.10656 -7.3953,-6.14556 c -5.0646,-4.20875 -8.5771,-6.34275 -11.1453,-6.77125 -2.0625,-0.34413 -3.75,-1.00758 -3.75,-1.47433 0,-1.37156 14.2685,-12.74631 16.7795,-13.37654 1.2635,-0.31712 3.7425,0.11319 5.5089,0.95624 5.7523,2.74544 23.7911,18.55394 44.4985,38.99682 11.1579,11.01526 20.6528,20.15523 21.1,20.31105 0.4471,0.15581 1.36,-0.37583 2.0286,-1.18144 1.4466,-1.74304 1.8566,-25.36605 0.6792,-39.13294 l -0.7724,-9.03107 9.4784,-6.71893 c 5.2132,-3.69541 10.0484,-6.71893 10.745,-6.71893 0.9963,0 1.134,3.57329 0.6455,16.75 -1.2785,34.48881 -2.7123,66.977435 -3.2549,73.754105 l -0.5609,7.00411 -7.3993,4.84201 c -4.0697,2.6631 -7.9135,4.67064 -8.5418,4.4612 -0.6283,-0.20944 -2.2691,-3.0525 -3.6461,-6.31791 -2.8377,-6.72906 -8.8009,-15.41423 -16.1307,-23.49352"
             id="path3096"
             inkscape:connector-curvature="0"
             sodipodi:nodetypes="ccscccccscsssssscsscsssccsscc" />
          <path
             style="fill:#000000;fill-opacity:1"
             d="m -734.7109,74.831817 0,-14 -4.5,-0.2637 c -6.0112,-0.3523 -9.2119,-1.1293 -8.821,-2.1414 0.1765,-0.4573 3.751,-3.581 7.9432,-6.9414 l 7.6221,-6.11 32.1279,0.6395 c 17.6703,0.3518 32.1278,0.9175 32.1278,1.2572 0,1.4035 -12.716,13.0321 -15.3151,14.0055 -1.5483,0.5799 -7.6233,1.0605 -13.5,1.068 -12.1302,0.015 -14.7783,0.494 -15.6891,2.8349 -0.3534,0.9083 -0.8944,5.4842 -1.2021,10.1687 -0.4735,7.2069 -0.301,8.7318 1.1216,9.9124 1.2176,1.0105 6.2644,1.5573 18.3022,1.9828 10.3733,0.3667 16.7537,0.9882 16.9738,1.6534 0.1939,0.5863 -2.2448,3.8105 -5.4193,7.165 -6.6123,6.986903 -9.827,8.254903 -20.9506,8.263603 -10.3352,0.01 -10.4421,0.181 -10.0997,16.3468 l 0.2783,13.1418 3,0.6401 c 1.65,0.3521 13.2375,0.6934 25.75,0.7585 12.5125,0.065 22.75,0.5136 22.75,0.9967 0,0.4832 -3.0377,4.0832 -6.7504,8 l -6.7504,7.1216 -15.4996,0 c -8.5248,0 -21.8171,-0.2927 -29.5386,-0.6459 l -14.039,-0.6423 0.039,-19.6041 0.039,-19.604"
             id="path3098"
             inkscape:connector-curvature="0"
             sodipodi:nodetypes="ccscscssccsccscccsccssscssccc" />
        </g>
        <g
           style="fill:#000000;fill-opacity:1"
           id="g3122"
           transform="matrix(0.89728227,0,0,0.89728227,-36.056193,98.765927)">
          <path
             sodipodi:nodetypes="ssssccsscssccsssscsscsscs"
             inkscape:connector-curvature="0"
             id="path3100"
             d="m -797.55938,765.48315 c 7.8714,2.7875 12.1209,6.5951 12.1209,8.723 0,1.3911 -2.2517,3.2812 -7.7291,6.4875 -4.251,2.4884 -8.1291,4.5244 -8.618,4.5244 -0.4889,0 -2.4233,-1.3472 -4.2987,-2.9939 -7.931,-6.9635 -18.0922,-9.6478 -24.6827,-6.5205 -7.3412,3.4837 -9.9201,12.8727 -5.388,19.6165 3.4758,5.172 11.6787,9.4673 28.4845,14.9155 8.3974,2.7223 16.4974,5.5893 18,6.371 7.2453,3.7695 10.9323,11.9211 9.1893,20.3169 -2.754,13.2662 -24.4531,30.961 -42.7125,34.8304 -8.0402,1.7039 -13.8133,1.7248 -21.2448,0.077 l 0,0 c -7.1283,-1.5806 -10.9688,-3.6743 -14.8516,-8.0965 -5.0927,-5.8003 -4.4491,-7.4069 5.7714,-14.407 4.9059,-3.3601 9.6193,-6.1093 10.4743,-6.1093 0.855,0 2.204,1.2375 2.9978,2.75 1.865,3.5536 8.2366,9.5913 12.2531,11.6112 16.9993,8.5487 34.532,-7.069 24.2097,-21.5653 -2.6151,-3.6726 -4.0176,-4.3501 -25.3547,-12.2493 -21.5381,-7.9736 -25.273,-10.0188 -28.3745,-15.5371 -1.9277,-3.43 -2.2767,-5.2418 -1.9308,-10.0239 0.3519,-4.8656 1.044,-6.6403 4.1574,-10.6615 3.9402,-5.089 11.8503,-11.7278 31.4096,-18.332 0,0 18.6651,-6.3662 26.1174,-3.7271 z"
             style="fill:#000000;fill-opacity:1" />
          <path
             style="fill:#000000;fill-opacity:1"
             d="m -766.52161,812.17483 0,-14 -4.5,-0.2637 c -6.0112,-0.3523 -9.2119,-1.1293 -8.821,-2.1414 0.1765,-0.4573 3.751,-3.581 7.9432,-6.9414 l 7.6221,-6.11 32.1279,0.6395 c 17.6703,0.3518 32.1278,0.9175 32.1278,1.2572 0,1.4035 -12.716,13.0321 -15.3151,14.0055 -1.5483,0.5799 -7.6233,1.0605 -13.5,1.068 -12.1302,0.015 -14.7783,0.494 -15.6891,2.8349 -0.3534,0.9083 -0.8944,5.4842 -1.2021,10.1687 -0.4735,7.2069 -0.301,8.7318 1.1216,9.9124 1.2176,1.0105 6.2644,1.5573 18.3022,1.9828 10.3733,0.3667 16.7537,0.9882 16.9738,1.6534 0.1939,0.5863 -2.2448,3.8105 -5.4193,7.165 -6.6123,6.9869 -9.827,8.2549 -20.9506,8.2636 -10.3352,0.01 -10.4421,0.181 -10.0997,16.3468 l 0.2783,13.1418 3,0.6401 c 1.65,0.3521 13.2375,0.6934 25.75,0.7585 12.5125,0.065 22.75,0.5136 22.75,0.9967 0,0.4832 -3.0377,4.0832 -6.7504,8 l -6.7504,7.1216 -15.4996,0 c -8.5248,0 -21.8171,-0.2927 -29.5386,-0.6459 l -14.039,-0.6423 0.039,-19.6041 0.039,-19.604"
             id="path3102"
             inkscape:connector-curvature="0"
             sodipodi:nodetypes="ccscscssccsccscccsccssscssccc" />
        </g>
        <g
           style="fill:#000000;fill-opacity:1"
           id="g3118"
           transform="matrix(0.83351091,0,0,0.83351091,-276.15672,169.3237)">
          <path
             sodipodi:nodetypes="ssssccsscssccsssscsscsscs"
             inkscape:connector-curvature="0"
             id="path3104"
             d="m -1642.4027,726.43238 c 7.8714,2.7875 12.1209,6.5951 12.1209,8.723 0,1.3911 -2.2517,3.2812 -7.7291,6.4875 -4.251,2.4884 -8.1291,4.5244 -8.618,4.5244 -0.4889,0 -2.4233,-1.3472 -4.2987,-2.9939 -7.931,-6.9635 -18.0922,-9.6478 -24.6827,-6.5205 -7.3412,3.4837 -9.9201,12.8727 -5.388,19.6165 3.4758,5.172 11.6787,9.4673 28.4845,14.9155 8.3974,2.7223 16.4974,5.5893 18,6.371 7.2453,3.7695 10.9323,11.9211 9.1893,20.3169 -2.754,13.2662 -24.4531,30.961 -42.7125,34.8304 -8.0402,1.7039 -13.8133,1.7248 -21.2448,0.077 l 0,0 c -7.1283,-1.5806 -10.9688,-3.6743 -14.8516,-8.0965 -5.0927,-5.8003 -4.4491,-7.4069 5.7714,-14.407 4.9059,-3.3601 9.6193,-6.1093 10.4743,-6.1093 0.855,0 2.204,1.2375 2.9978,2.75 1.865,3.5536 8.2366,9.5913 12.2531,11.6112 16.9993,8.5487 34.532,-7.069 24.2097,-21.5653 -2.6151,-3.6726 -4.0176,-4.3501 -25.3547,-12.2493 -21.5381,-7.9736 -25.273,-10.0188 -28.3745,-15.5371 -1.9277,-3.43 -2.2767,-5.2418 -1.9308,-10.0239 0.3519,-4.8656 1.044,-6.6403 4.1574,-10.6615 3.9402,-5.089 11.8503,-11.7278 31.4096,-18.332 0,0 18.6651,-6.3662 26.1174,-3.7271 z"
             style="fill:#000000;fill-opacity:1" />
          <path
             style="fill:#000000;fill-opacity:1"
             d="m -1520.7143,838.81258 c -0.8131,3.2208 -2.2289,5.1152 -6.1661,8.25 -5.2639,4.1912 -7.6299,4.9955 -8.2933,2.8192 -0.2095,-0.6875 -2.2753,-7.775 -4.5907,-15.75 -5.0749,-17.4802 -13.7668,-41.9401 -15.6229,-43.9643 -1.1772,-1.2838 -1.5351,-1.2717 -2.9051,0.098 -2.3651,2.3651 -20.4375,46.6675 -20.4375,50.1001 0,2.1512 -0.9945,3.9071 -3.5263,6.2262 -4.8294,4.4236 -8.2462,6.1673 -9.5432,4.8703 -0.5659,-0.566 -3.2132,-8.6344 -5.8828,-17.9298 -10.066,-35.0495 -21.558,-67.03998 -25.6691,-71.45548 -1.3082,-1.4051 -2.3786,-3.0408 -2.3786,-3.6349 0,-1.365 12.0666,-11.3104 13.7227,-11.3104 0.6772,0 1.9652,1.1202 2.8622,2.4893 2.1952,3.3502 12.0739,28.96708 19.5751,50.76068 3.3602,9.7625 6.4291,17.75 6.8197,17.75 3.7592,0 12.0531,-23.1661 16.6039,-46.3768 l 1.7405,-8.87688 5.9532,-4.6231 c 8.4457,-6.5587 9.2159,-6.3352 13.3599,3.8768 3.9146,9.64698 13.2405,36.85928 16.3826,47.80378 2.0778,7.2371 4.3122,9.845 6.0765,7.092 0.4919,-0.7677 2.6978,-5.9777 4.902,-11.5779 4.3137,-10.9599 8.4606,-27.0643 9.5171,-36.95928 l 0.6558,-6.1413 8.8296,-6.1087 c 4.8563,-3.3597 9.0928,-6.1086 9.4144,-6.1086 1.2479,0 0.3691,3.0587 -5.4208,18.8666 -3.2969,9.00158 -5.9944,17.22818 -5.9944,18.28138"
             id="path3106"
             inkscape:connector-curvature="0"
             sodipodi:nodetypes="cscsscsscsssscssscscscscccssc" />
        </g>
        <g
           style="fill:#000000;fill-opacity:1"
           id="g3114"
           transform="matrix(0.85903487,0,0,0.85903487,-236.45638,1.2022384)">
          <path
             style="fill:#000000;fill-opacity:1"
             d="m -1479.9926,110.11623 c -0.8131,3.2208 -2.2289,5.1152 -6.1661,8.25 -5.2639,4.1912 -7.6299,4.9955 -8.2933,2.8192 -0.2095,-0.6875 -2.2753,-7.775 -4.5907,-15.75 -5.0749,-17.480197 -13.7668,-41.940097 -15.6229,-43.964297 -1.1772,-1.2838 -1.5351,-1.2717 -2.9051,0.098 -2.3651,2.3651 -20.4375,46.667497 -20.4375,50.100097 0,2.1512 -0.9945,3.9071 -3.5263,6.2262 -4.8294,4.4236 -8.2462,6.1673 -9.5432,4.8703 -0.5659,-0.566 -3.2132,-8.6344 -5.8828,-17.9298 -10.066,-35.049497 -21.558,-67.039977 -25.6691,-71.455477 -1.3082,-1.4051 -2.3786,-3.0408 -2.3786,-3.6349 0,-1.365 12.0666,-11.3104 13.7227,-11.3104 0.6772,0 1.9652,1.1202 2.8622,2.4893 2.1952,3.3502 12.0739,28.96708 19.5751,50.76068 3.3602,9.7625 6.4291,17.75 6.8197,17.75 3.7592,0 12.0531,-23.1661 16.6039,-46.3768 l 1.7405,-8.87688 5.9532,-4.6231 c 8.4457,-6.5587 9.2159,-6.3352 13.3599,3.8768 3.9146,9.64698 13.2405,36.85928 16.3826,47.80378 2.0778,7.2371 4.3122,9.845 6.0765,7.092 0.4919,-0.7677 2.6978,-5.9777 4.902,-11.5779 4.3137,-10.9599 8.4606,-27.0643 9.5171,-36.95928 l 0.6558,-6.1413 8.8296,-6.1087 c 4.8563,-3.3597 9.0928,-6.1086 9.4144,-6.1086 1.2479,0 0.3691,3.0587 -5.4208,18.8666 -3.2969,9.00158 -5.9944,17.22818 -5.9944,18.28138"
             id="path3110"
             inkscape:connector-curvature="0"
             sodipodi:nodetypes="cscsscsscsssscssscscscscccssc" />
          <path
             style="fill:#000000;fill-opacity:1"
             d="m -1655.8159,50.291809 c -5.4527,-6.23552 -8.042,-7.6169 -9.7918,-5.22391 -0.7685,1.05103 -1.4423,9.27362 -1.9152,23.37255 -0.4442,13.24078 -1.1593,22.27067 -1.8278,23.07909 -0.6039,0.7304 -3.3539,2.47113 -6.1111,3.86828 -2.7571,1.39716 -6.6969,3.65466 -8.7551,5.016691 -2.0581,1.36202 -4.218,2.18223 -4.7998,1.82269 -2.2362,-1.38203 -1.1471,-21.209601 2.4188,-44.035671 0.8593,-5.5 1.8439,-14.99795 2.1882,-21.10656 l 0.6259,-11.10656 -7.3953,-6.14556 c -5.0646,-4.20875 -8.5771,-6.34275 -11.1453,-6.77125 -2.0625,-0.34413 -3.75,-1.00758 -3.75,-1.47433 0,-1.37156 14.2685,-12.7463102 16.7795,-13.3765402 1.2635,-0.31712 3.7425,0.11319 5.5089,0.95623997 5.7523,2.74544003 23.7911,18.55394023 44.4985,38.99682023 11.1579,11.01526 20.6528,20.15523 21.1,20.31105 0.4471,0.15581 1.36,-0.37583 2.0286,-1.18144 1.4466,-1.74304 1.8566,-25.36605 0.6792,-39.13294 l -0.7724,-9.0310702 9.4784,-6.71893 c 5.2132,-3.69541 10.0484,-6.71893 10.745,-6.71893 0.9963,0 1.134,3.57328997 0.6455,16.7500002 -1.2785,34.48881 -2.7123,66.97744 -3.2549,73.75411 l -0.5609,7.00411 -7.3993,4.84201 c -4.0697,2.663101 -7.9135,4.670641 -8.5418,4.461201 -0.6283,-0.20944 -2.2691,-3.052501 -3.6461,-6.317911 -2.8377,-6.72906 -8.8009,-15.41423 -16.1307,-23.49352"
             id="path3112"
             inkscape:connector-curvature="0"
             sodipodi:nodetypes="ccscccccscsssssscsscsssccsscc" />
        </g>
      </g>
    </g>
  </g>
</svg>
